<?xml version="1.0" encoding="us-ascii" standalone="no"?><svg xmlns="http://www.w3.org/2000/svg" xmlns:xlink="http://www.w3.org/1999/xlink" contentStyleType="text/css" height="543px" preserveAspectRatio="none" style="width:879px;height:543px;background:#FFFFFF;" version="1.1" viewBox="0 0 879 543" width="879px" zoomAndPan="magnify"><defs/><g><rect fill="#FFFFFF" height="23.291" style="stroke:#181818;stroke-width:1.0;" width="10" x="21" y="93.6211"/><rect fill="#FFFFFF" height="325.2402" style="stroke:#181818;stroke-width:1.0;" width="10" x="208" y="116.9121"/><rect fill="#FFFFFF" height="262.6582" style="stroke:#181818;stroke-width:1.0;" width="10" x="339" y="148.2031"/><rect fill="#FFFFFF" height="187.7461" style="stroke:#181818;stroke-width:1.0;" width="10" x="486" y="179.4941"/><rect fill="#FFFFFF" height="93.873" style="stroke:#181818;stroke-width:1.0;" width="10" x="633" y="210.7852"/><rect fill="#FFFFFF" height="31.291" style="stroke:#181818;stroke-width:1.0;" width="10" x="740" y="242.0762"/><line style="stroke:#181818;stroke-width:0.5;stroke-dasharray:5.0,5.0;" x1="26" x2="26" y1="83.6211" y2="460.1523"/><line style="stroke:#181818;stroke-width:0.5;stroke-dasharray:5.0,5.0;" x1="213" x2="213" y1="83.6211" y2="460.1523"/><line style="stroke:#181818;stroke-width:0.5;stroke-dasharray:5.0,5.0;" x1="343.5" x2="343.5" y1="83.6211" y2="460.1523"/><line style="stroke:#181818;stroke-width:0.5;stroke-dasharray:5.0,5.0;" x1="491" x2="491" y1="83.6211" y2="460.1523"/><line style="stroke:#181818;stroke-width:0.5;stroke-dasharray:5.0,5.0;" x1="637.5" x2="637.5" y1="83.6211" y2="460.1523"/><line style="stroke:#181818;stroke-width:0.5;stroke-dasharray:5.0,5.0;" x1="744.5" x2="744.5" y1="83.6211" y2="460.1523"/><line style="stroke:#181818;stroke-width:0.5;stroke-dasharray:5.0,5.0;" x1="832.5" x2="832.5" y1="375.7598" y2="460.1523"/><text fill="#000000" font-family="sans-serif" font-size="14" lengthAdjust="spacing" textLength="36" x="5" y="80.1074">Client</text><ellipse cx="26" cy="13.5" fill="#E2E2F0" rx="8" ry="8" style="stroke:#181818;stroke-width:0.5;"/><path d="M26,21.5 L26,48.5 M13,29.5 L39,29.5 M26,48.5 L13,63.5 M26,48.5 L39,63.5 " fill="none" style="stroke:#181818;stroke-width:0.5;"/><text fill="#000000" font-family="sans-serif" font-size="14" lengthAdjust="spacing" textLength="36" x="5" y="474.2598">Client</text><ellipse cx="26" cy="486.2734" fill="#E2E2F0" rx="8" ry="8" style="stroke:#181818;stroke-width:0.5;"/><path d="M26,494.2734 L26,521.2734 M13,502.2734 L39,502.2734 M26,521.2734 L13,536.2734 M26,521.2734 L39,536.2734 " fill="none" style="stroke:#181818;stroke-width:0.5;"/><rect fill="#E2E2F0" height="32.6211" rx="2.5" ry="2.5" style="stroke:#181818;stroke-width:0.5;" width="72" x="177" y="50"/><text fill="#000000" font-family="sans-serif" font-size="14" lengthAdjust="spacing" textLength="58" x="184" y="72.1074">Frontend</text><rect fill="#E2E2F0" height="32.6211" rx="2.5" ry="2.5" style="stroke:#181818;stroke-width:0.5;" width="72" x="177" y="459.1523"/><text fill="#000000" font-family="sans-serif" font-size="14" lengthAdjust="spacing" textLength="58" x="184" y="481.2598">Frontend</text><rect fill="#E2E2F0" height="32.6211" rx="2.5" ry="2.5" style="stroke:#181818;stroke-width:0.5;" width="113" x="287.5" y="50"/><text fill="#000000" font-family="sans-serif" font-size="14" lengthAdjust="spacing" textLength="99" x="294.5" y="72.1074">PhotoController</text><rect fill="#E2E2F0" height="32.6211" rx="2.5" ry="2.5" style="stroke:#181818;stroke-width:0.5;" width="113" x="287.5" y="459.1523"/><text fill="#000000" font-family="sans-serif" font-size="14" lengthAdjust="spacing" textLength="99" x="294.5" y="481.2598">PhotoController</text><rect fill="#E2E2F0" height="32.6211" rx="2.5" ry="2.5" style="stroke:#181818;stroke-width:0.5;" width="98" x="442" y="50"/><text fill="#000000" font-family="sans-serif" font-size="14" lengthAdjust="spacing" textLength="84" x="449" y="72.1074">PhotoService</text><rect fill="#E2E2F0" height="32.6211" rx="2.5" ry="2.5" style="stroke:#181818;stroke-width:0.5;" width="98" x="442" y="459.1523"/><text fill="#000000" font-family="sans-serif" font-size="14" lengthAdjust="spacing" textLength="84" x="449" y="481.2598">PhotoService</text><rect fill="#E2E2F0" height="32.6211" rx="2.5" ry="2.5" style="stroke:#181818;stroke-width:0.5;" width="119" x="578.5" y="50"/><text fill="#000000" font-family="sans-serif" font-size="14" lengthAdjust="spacing" textLength="105" x="585.5" y="72.1074">PhotoRepository</text><rect fill="#E2E2F0" height="32.6211" rx="2.5" ry="2.5" style="stroke:#181818;stroke-width:0.5;" width="119" x="578.5" y="459.1523"/><text fill="#000000" font-family="sans-serif" font-size="14" lengthAdjust="spacing" textLength="105" x="585.5" y="481.2598">PhotoRepository</text><rect fill="#E2E2F0" height="32.6211" rx="2.5" ry="2.5" style="stroke:#181818;stroke-width:0.5;" width="75" x="707.5" y="50"/><text fill="#000000" font-family="sans-serif" font-size="14" lengthAdjust="spacing" textLength="61" x="714.5" y="72.1074">Database</text><rect fill="#E2E2F0" height="32.6211" rx="2.5" ry="2.5" style="stroke:#181818;stroke-width:0.5;" width="75" x="707.5" y="459.1523"/><text fill="#000000" font-family="sans-serif" font-size="14" lengthAdjust="spacing" textLength="61" x="714.5" y="481.2598">Database</text><rect fill="#E2E2F0" height="32.6211" rx="2.5" ry="2.5" style="stroke:#181818;stroke-width:0.5;" width="81" x="792.5" y="459.1523"/><text fill="#000000" font-family="sans-serif" font-size="14" lengthAdjust="spacing" textLength="67" x="799.5" y="481.2598">PhotoDTO</text><rect fill="#FFFFFF" height="23.291" style="stroke:#181818;stroke-width:1.0;" width="10" x="21" y="93.6211"/><rect fill="#FFFFFF" height="325.2402" style="stroke:#181818;stroke-width:1.0;" width="10" x="208" y="116.9121"/><rect fill="#FFFFFF" height="262.6582" style="stroke:#181818;stroke-width:1.0;" width="10" x="339" y="148.2031"/><rect fill="#FFFFFF" height="187.7461" style="stroke:#181818;stroke-width:1.0;" width="10" x="486" y="179.4941"/><rect fill="#FFFFFF" height="93.873" style="stroke:#181818;stroke-width:1.0;" width="10" x="633" y="210.7852"/><rect fill="#FFFFFF" height="31.291" style="stroke:#181818;stroke-width:1.0;" width="10" x="740" y="242.0762"/><polygon fill="#181818" points="196,112.9121,206,116.9121,196,120.9121,200,116.9121" style="stroke:#181818;stroke-width:1.0;"/><line style="stroke:#181818;stroke-width:1.0;" x1="26" x2="202" y1="116.9121" y2="116.9121"/><text fill="#000000" font-family="sans-serif" font-size="13" lengthAdjust="spacing" textLength="158" x="33" y="111.6494">Browse the photos for sale.</text><polygon fill="#181818" points="327,144.2031,337,148.2031,327,152.2031,331,148.2031" style="stroke:#181818;stroke-width:1.0;"/><line style="stroke:#181818;stroke-width:1.0;" x1="218" x2="333" y1="148.2031" y2="148.2031"/><text fill="#000000" font-family="sans-serif" font-size="13" lengthAdjust="spacing" textLength="73" x="225" y="142.9404">GET /photos</text><polygon fill="#181818" points="474,175.4941,484,179.4941,474,183.4941,478,179.4941" style="stroke:#181818;stroke-width:1.0;"/><line style="stroke:#181818;stroke-width:1.0;" x1="349" x2="480" y1="179.4941" y2="179.4941"/><text fill="#000000" font-family="sans-serif" font-size="13" lengthAdjust="spacing" textLength="118" x="356" y="174.2314">getPhotosAvailable()</text><polygon fill="#181818" points="621,206.7852,631,210.7852,621,214.7852,625,210.7852" style="stroke:#181818;stroke-width:1.0;"/><line style="stroke:#181818;stroke-width:1.0;" x1="496" x2="627" y1="210.7852" y2="210.7852"/><text fill="#000000" font-family="sans-serif" font-size="13" lengthAdjust="spacing" textLength="118" x="503" y="205.5225">getPhotosAvailable()</text><polygon fill="#181818" points="728,238.0762,738,242.0762,728,246.0762,732,242.0762" style="stroke:#181818;stroke-width:1.0;"/><line style="stroke:#181818;stroke-width:1.0;" x1="643" x2="734" y1="242.0762" y2="242.0762"/><text fill="#000000" font-family="sans-serif" font-size="13" lengthAdjust="spacing" textLength="35" x="650" y="236.8135">Query</text><polygon fill="#181818" points="654,269.3672,644,273.3672,654,277.3672,650,273.3672" style="stroke:#181818;stroke-width:1.0;"/><line style="stroke:#181818;stroke-width:1.0;stroke-dasharray:2.0,2.0;" x1="648" x2="744" y1="273.3672" y2="273.3672"/><text fill="#000000" font-family="sans-serif" font-size="13" lengthAdjust="spacing" textLength="71" x="660" y="268.1045">List&lt;Photo&gt;</text><polygon fill="#181818" points="507,300.6582,497,304.6582,507,308.6582,503,304.6582" style="stroke:#181818;stroke-width:1.0;"/><line style="stroke:#181818;stroke-width:1.0;stroke-dasharray:2.0,2.0;" x1="501" x2="637" y1="304.6582" y2="304.6582"/><text fill="#000000" font-family="sans-serif" font-size="13" lengthAdjust="spacing" textLength="71" x="513" y="299.3955">List&lt;Photo&gt;</text><polygon fill="#181818" points="360,331.9492,350,335.9492,360,339.9492,356,335.9492" style="stroke:#181818;stroke-width:1.0;"/><line style="stroke:#181818;stroke-width:1.0;stroke-dasharray:2.0,2.0;" x1="354" x2="485" y1="335.9492" y2="335.9492"/><text fill="#000000" font-family="sans-serif" font-size="13" lengthAdjust="spacing" textLength="71" x="366" y="330.6865">List&lt;Photo&gt;</text><polygon fill="#181818" points="780.5,363.2402,790.5,367.2402,780.5,371.2402,784.5,367.2402" style="stroke:#181818;stroke-width:1.0;"/><line style="stroke:#181818;stroke-width:1.0;" x1="349" x2="786.5" y1="367.2402" y2="367.2402"/><text fill="#000000" font-family="sans-serif" font-size="13" lengthAdjust="spacing" textLength="234" x="356" y="361.9775">Convert List&lt;Photo&gt; to List&lt;PhotoDTO&gt;</text><rect fill="#E2E2F0" height="32.6211" rx="2.5" ry="2.5" style="stroke:#181818;stroke-width:0.5;" width="81" x="792.5" y="343.9492"/><text fill="#000000" font-family="sans-serif" font-size="14" lengthAdjust="spacing" textLength="67" x="799.5" y="366.0566">PhotoDTO</text><polygon fill="#181818" points="229,406.8613,219,410.8613,229,414.8613,225,410.8613" style="stroke:#181818;stroke-width:1.0;"/><line style="stroke:#181818;stroke-width:1.0;stroke-dasharray:2.0,2.0;" x1="223" x2="343" y1="410.8613" y2="410.8613"/><text fill="#000000" font-family="sans-serif" font-size="13" lengthAdjust="spacing" textLength="97" x="235" y="405.5986">List&lt;PhotoDTO&gt;</text><polygon fill="#181818" points="37,438.1523,27,442.1523,37,446.1523,33,442.1523" style="stroke:#181818;stroke-width:1.0;"/><line style="stroke:#181818;stroke-width:1.0;stroke-dasharray:2.0,2.0;" x1="31" x2="212" y1="442.1523" y2="442.1523"/><text fill="#000000" font-family="sans-serif" font-size="13" lengthAdjust="spacing" textLength="139" x="43" y="436.8896">Shows available photos.</text><!--SRC=[ZL9DJyCm3BttL_W8Xy4zGfDW0ov8V6n_mCiCZHGrLMAA-FUaw-AcQH6S4jlno_FpGytEmyOQQhXgqRFHfiM6uS6xXgavJf8ljMEtYGNlh2K_h-t8TqRJlF16hGic_lKzgMsHyO21gWercmwP4fVXWDLQc2Yuy-uh471DqFQW0TuZ-O2MhgeZbGWIooZfqgCMeoXulD_3zG0xjfO35t44oiTMy45yIeJR3et5WwMBom8jIPG7GcYKwLzOcQf5t2CcSHMyVb9y8hsYUhh0Qed0ambySygkStcbU_Pb0X4vVa5Ov2vIB2qd1zAU16IxVovtSbv9h2Y8sOuyv-t0BWlZgpcpoORoPUTc_0CZyypekjW_U5F1hevM1aoRFVjvOcEnxGy0]--></g></svg>