<?xml version="1.0" encoding="us-ascii" standalone="no"?><svg xmlns="http://www.w3.org/2000/svg" xmlns:xlink="http://www.w3.org/1999/xlink" contentStyleType="text/css" height="677px" preserveAspectRatio="none" style="width:433px;height:677px;background:#FFFFFF;" version="1.1" viewBox="0 0 433 677" width="433px" zoomAndPan="magnify"><defs/><g><!--cluster PictureShop--><g id="cluster_PictureShop"><rect fill="none" height="561" rx="2.5" ry="2.5" style="stroke:#181818;stroke-width:1.0;" width="305" x="7" y="110"/><rect fill="none" height="10" style="stroke:#181818;stroke-width:1.0;" width="15" x="292" y="115"/><rect fill="none" height="2" style="stroke:#181818;stroke-width:1.0;" width="4" x="290" y="117"/><rect fill="none" height="2" style="stroke:#181818;stroke-width:1.0;" width="4" x="290" y="121"/><text fill="#000000" font-family="sans-serif" font-size="14" font-weight="bold" lengthAdjust="spacing" textLength="86" x="116.5" y="137.5332">PictureShop</text></g><!--entity Controller--><g id="elem_Controller"><rect fill="#F1F1F1" height="47.6094" rx="2.5" ry="2.5" style="stroke:#181818;stroke-width:0.5;" width="102" x="23" y="283"/><rect fill="#F1F1F1" height="10" style="stroke:#181818;stroke-width:0.5;" width="15" x="105" y="288"/><rect fill="#F1F1F1" height="2" style="stroke:#181818;stroke-width:0.5;" width="4" x="103" y="290"/><rect fill="#F1F1F1" height="2" style="stroke:#181818;stroke-width:0.5;" width="4" x="103" y="294"/><text fill="#000000" font-family="sans-serif" font-size="14" lengthAdjust="spacing" textLength="62" x="38" y="317.5332">Controller</text></g><!--entity Dto--><g id="elem_Dto"><rect fill="#F1F1F1" height="47.6094" rx="2.5" ry="2.5" style="stroke:#181818;stroke-width:0.5;" width="62" x="33" y="391"/><rect fill="#F1F1F1" height="10" style="stroke:#181818;stroke-width:0.5;" width="15" x="75" y="396"/><rect fill="#F1F1F1" height="2" style="stroke:#181818;stroke-width:0.5;" width="4" x="73" y="398"/><rect fill="#F1F1F1" height="2" style="stroke:#181818;stroke-width:0.5;" width="4" x="73" y="402"/><text fill="#000000" font-family="sans-serif" font-size="14" lengthAdjust="spacing" textLength="22" x="48" y="425.5332">Dto</text></g><!--entity Service--><g id="elem_Service"><rect fill="#F1F1F1" height="47.6094" rx="2.5" ry="2.5" style="stroke:#181818;stroke-width:0.5;" width="87" x="65.5" y="499"/><rect fill="#F1F1F1" height="10" style="stroke:#181818;stroke-width:0.5;" width="15" x="132.5" y="504"/><rect fill="#F1F1F1" height="2" style="stroke:#181818;stroke-width:0.5;" width="4" x="130.5" y="506"/><rect fill="#F1F1F1" height="2" style="stroke:#181818;stroke-width:0.5;" width="4" x="130.5" y="510"/><text fill="#000000" font-family="sans-serif" font-size="14" lengthAdjust="spacing" textLength="47" x="80.5" y="533.5332">Service</text></g><!--entity Repository--><g id="elem_Repository"><rect fill="#F1F1F1" height="47.6094" rx="2.5" ry="2.5" style="stroke:#181818;stroke-width:0.5;" width="108" x="188" y="607"/><rect fill="#F1F1F1" height="10" style="stroke:#181818;stroke-width:0.5;" width="15" x="276" y="612"/><rect fill="#F1F1F1" height="2" style="stroke:#181818;stroke-width:0.5;" width="4" x="274" y="614"/><rect fill="#F1F1F1" height="2" style="stroke:#181818;stroke-width:0.5;" width="4" x="274" y="618"/><text fill="#000000" font-family="sans-serif" font-size="14" lengthAdjust="spacing" textLength="68" x="203" y="641.5332">Repository</text></g><!--entity Domain Model--><g id="elem_Domain Model"><rect fill="#F1F1F1" height="47.6094" rx="2.5" ry="2.5" style="stroke:#181818;stroke-width:0.5;" width="130" x="23" y="607"/><rect fill="#F1F1F1" height="10" style="stroke:#181818;stroke-width:0.5;" width="15" x="133" y="612"/><rect fill="#F1F1F1" height="2" style="stroke:#181818;stroke-width:0.5;" width="4" x="131" y="614"/><rect fill="#F1F1F1" height="2" style="stroke:#181818;stroke-width:0.5;" width="4" x="131" y="618"/><text fill="#000000" font-family="sans-serif" font-size="14" lengthAdjust="spacing" textLength="90" x="38" y="641.5332">Domain Model</text></g><text fill="#000000" font-family="sans-serif" font-size="14" lengthAdjust="spacing" textLength="4" x="161" y="88.9238">&#160;</text><rect fill="#F1F1F1" height="12" style="stroke:#181818;stroke-width:1.5;" width="12" x="157" y="104"/><text fill="#000000" font-family="sans-serif" font-size="14" lengthAdjust="spacing" textLength="4" x="274" y="88.9238">&#160;</text><rect fill="#F1F1F1" height="12" style="stroke:#181818;stroke-width:1.5;" width="12" x="270" y="104"/><!--entity DataBase--><g id="elem_DataBase"><path d="M334,186 C334,176 375,176 375,176 C375,176 416,176 416,186 L416,212.6094 C416,222.6094 375,222.6094 375,222.6094 C375,222.6094 334,222.6094 334,212.6094 L334,186 " fill="#F1F1F1" style="stroke:#181818;stroke-width:0.5;"/><path d="M334,186 C334,196 375,196 375,196 C375,196 416,196 416,186 " fill="none" style="stroke:#181818;stroke-width:0.5;"/><text fill="#000000" font-family="sans-serif" font-size="14" lengthAdjust="spacing" textLength="62" x="344" y="214.5332">DataBase</text></g><!--entity UI_Client--><g id="elem_UI_Client"><ellipse cx="55" cy="14" fill="#F1F1F1" rx="8" ry="8" style="stroke:#181818;stroke-width:0.5;"/><text fill="#000000" font-family="sans-serif" font-size="14" lengthAdjust="spacing" textLength="56" x="27" y="45.5332">UI_Client</text></g><!--entity UI_Admin--><g id="elem_UI_Admin"><ellipse cx="163" cy="14" fill="#F1F1F1" rx="8" ry="8" style="stroke:#181818;stroke-width:0.5;"/><text fill="#000000" font-family="sans-serif" font-size="14" lengthAdjust="spacing" textLength="59" x="133.5" y="45.5332">UI_Admin</text></g><!--entity UI_Photographer--><g id="elem_UI_Photographer"><ellipse cx="296" cy="14" fill="#F1F1F1" rx="8" ry="8" style="stroke:#181818;stroke-width:0.5;"/><text fill="#000000" font-family="sans-serif" font-size="14" lengthAdjust="spacing" textLength="107" x="242.5" y="45.5332">UI_Photographer</text></g><!--link port1 to Controller--><g id="link_port1_Controller"><path d="M160.62,116.22 C149.84,139.84 105.22,237.59 84.57,282.83 " fill="none" id="port1-Controller" style="stroke:#181818;stroke-width:1.0;"/></g><!--link Controller to Dto--><g id="link_Controller_Dto"><path d="M71.83,331 C70.16,348.66 67.87,372.94 66.2,390.68 " fill="none" id="Controller-Dto" style="stroke:#181818;stroke-width:1.0;"/></g><!--link Dto to Service--><g id="link_Dto_Service"><path d="M73.76,439 C81.26,456.66 91.57,480.94 99.1,498.68 " fill="none" id="Dto-Service" style="stroke:#181818;stroke-width:1.0;"/></g><!--link Controller to Service--><g id="link_Controller_Service"><path d="M88.37,331.33 C97.41,347.44 108.25,369.71 113,391 C121.28,428.09 118.5208,462.6388 114.5908,489.0688 " fill="none" id="Controller-to-Service" style="stroke:#181818;stroke-width:1.0;"/><path d="M121.938,497.1592 A9,9 0 0 0 105.2075 494.6714" fill="none" style="stroke:#181818;stroke-width:1.5;"/></g><!--link Service to Repository--><g id="link_Service_Repository"><path d="M137.86,547 C160.01,564.66 190.48,588.94 212.74,606.68 " fill="none" id="Service-Repository" style="stroke:#181818;stroke-width:1.0;"/></g><!--link Repository to Domain Model--><g id="link_Repository_Domain Model"><path d="M187.93,631 C176.38,631 164.82,631 153.27,631 " fill="none" id="Repository-Domain Model" style="stroke:#181818;stroke-width:1.0;"/></g><!--link Service to Domain Model--><g id="link_Service_Domain Model"><path d="M104.44,547 C100.95,564.66 96.13,588.94 92.62,606.68 " fill="none" id="Service-Domain Model" style="stroke:#181818;stroke-width:1.0;"/></g><!--link port2 to DataBase--><g id="link_port2_DataBase"><path d="M281.9,116.21 C294.88,127.69 326.62,155.74 349.42,175.9 " fill="none" id="port2-DataBase" style="stroke:#181818;stroke-width:1.0;"/></g><!--link port2 to Repository--><g id="link_port2_Repository"><path d="M277,116.1 C281.31,138.45 298,230.03 298,306 C298,306 298,306 298,416 C298,487.43 268.44,568.03 252.27,606.77 " fill="none" id="port2-Repository" style="stroke:#181818;stroke-width:1.0;"/></g><!--link UI_Client to port1--><g id="link_UI_Client_port1"><path d="M64.21,23.01 C85.84,41.84 139.39,88.45 157.16,103.92 " fill="none" id="UI_Client-port1" style="stroke:#181818;stroke-width:1.0;"/></g><!--link UI_Admin to port1--><g id="link_UI_Admin_port1"><path d="M163,23.01 C163,41.84 163,88.45 163,103.92 " fill="none" id="UI_Admin-port1" style="stroke:#181818;stroke-width:1.0;"/></g><!--link UI_Photographer to port1--><g id="link_UI_Photographer_port1"><path d="M286.86,21.46 C261.5,39.38 190.76,89.38 169.27,104.57 " fill="none" id="UI_Photographer-port1" style="stroke:#181818;stroke-width:1.0;"/></g><!--SRC=[TL712i8m3BtdAyfENdfmVw3kua4OYYSHgLjmXQqfMLL4_7ThDqUTsa9vUIz9yzg26ai6ZHD9hWjtPjnKP1Dn1-7NRa76CTKryhuZCaSzsY1VT85zj4PBhNR4jtSYDKeRiQ8Iwpq4pXBxQ_nMRS3JdsmA3u1IENLKBOeaysZkqMiaBm24IY5BkXhvEM0S30bXu70Er33vTy4aLYDFGfwj_AknFbLEZZqFsK9-QG2HiT2xinxSfQ4WVb7OBW-BMh- -gJVHlP-dPsNZsuxPl2979rQsGluKdm00]--></g></svg>