<?xml version="1.0" encoding="us-ascii" standalone="no"?><svg xmlns="http://www.w3.org/2000/svg" xmlns:xlink="http://www.w3.org/1999/xlink" contentStyleType="text/css" height="200px" preserveAspectRatio="none" style="width:1074px;height:200px;background:#FFFFFF;" version="1.1" viewBox="0 0 1074 200" width="1074px" zoomAndPan="magnify"><defs/><g><!--entity Photographer--><g id="elem_Photographer"><ellipse cx="49.5" cy="66" fill="#F1F1F1" rx="8" ry="8" style="stroke:#181818;stroke-width:0.5;"/><path d="M49.5,74 L49.5,101 M36.5,82 L62.5,82 M49.5,101 L36.5,116 M49.5,101 L62.5,116 " fill="none" style="stroke:#181818;stroke-width:0.5;"/><text fill="#000000" font-family="sans-serif" font-size="14" lengthAdjust="spacing" textLength="87" x="6" y="132.0332">Photographer</text></g><!--entity Attacker--><g id="elem_Attacker"><ellipse cx="1041" cy="66" fill="#F1F1F1" rx="8" ry="8" style="stroke:#181818;stroke-width:0.5;"/><path d="M1041,74 L1041,101 M1028,82 L1054,82 M1041,101 L1028,116 M1041,101 L1054,116 " fill="none" style="stroke:#181818;stroke-width:0.5;"/><text fill="#000000" font-family="sans-serif" font-size="14" lengthAdjust="spacing" textLength="52" x="1015" y="132.0332">Attacker</text></g><g id="elem_Add Photo To Portfolio"><ellipse cx="556.1309" cy="96.3262" fill="#F1F1F1" rx="92.1309" ry="20.8262" style="stroke:#181818;stroke-width:0.5;"/><text fill="#000000" font-family="sans-serif" font-size="14" lengthAdjust="spacing" textLength="143" x="484.6309" y="100.0547">Add Photo To Portfolio</text></g><g id="elem_Denial of Service Attack"><ellipse cx="859.1904" cy="173.4381" fill="#FF0000" rx="95.1904" ry="21.4381" style="stroke:#181818;stroke-width:0.5;"/><text fill="#000000" font-family="sans-serif" font-size="14" lengthAdjust="spacing" textLength="150" x="784.1904" y="177.1666">Denial of Service Attack</text></g><g id="elem_Unauthorized Access"><ellipse cx="858.8923" cy="96.3785" fill="#FF0000" rx="87.3923" ry="19.8785" style="stroke:#181818;stroke-width:0.5;"/><text fill="#000000" font-family="sans-serif" font-size="14" lengthAdjust="spacing" textLength="132" x="792.8923" y="100.107">Unauthorized Access</text></g><g id="elem_Malicious Upload"><ellipse cx="859.2363" cy="23.7473" fill="#FF0000" rx="76.7363" ry="17.7473" style="stroke:#181818;stroke-width:0.5;"/><text fill="#000000" font-family="sans-serif" font-size="14" lengthAdjust="spacing" textLength="106" x="803.7006" y="28.1555">Malicious Upload</text></g><!--link Photographer to Add Photo To Portfolio--><g id="link_Photographer_Add Photo To Portfolio"><path d="M93.05,96.5 C111.75,96.5 133.96,96.5 154,96.5 C154,96.5 154,96.5 403,96.5 C422.66,96.5 437.75,96.5 457.77,96.5 " fill="none" id="Photographer-to-Add Photo To Portfolio" style="stroke:#181818;stroke-width:1.0;"/><polygon fill="#181818" points="463.77,96.5,454.77,92.5,458.77,96.5,454.77,100.5,463.77,96.5" style="stroke:#181818;stroke-width:1.0;"/></g><!--reverse link Denial of Service Attack to Attacker--><g id="link_Denial of Service Attack_Attacker"><path d="M911.533,152.3731 C926.833,146.0331 938.41,141.18 954,134.5 C974.56,125.7 997.74,115.43 1014.85,107.79 " fill="none" id="Denial of Service Attack-backto-Attacker" style="stroke:#181818;stroke-width:1.0;"/><polygon fill="#181818" points="905.99,154.67,915.8357,154.92,910.6091,152.7559,912.7732,147.5294,905.99,154.67" style="stroke:#181818;stroke-width:1.0;"/></g><!--reverse link Unauthorized Access to Attacker--><g id="link_Unauthorized Access_Attacker"><path d="M952.57,96.5 C977.61,96.5 997,96.5 1014.98,96.5 " fill="none" id="Unauthorized Access-backto-Attacker" style="stroke:#181818;stroke-width:1.0;"/><polygon fill="#181818" points="946.57,96.5,955.57,100.5,951.57,96.5,955.57,92.5,946.57,96.5" style="stroke:#181818;stroke-width:1.0;"/></g><!--reverse link Malicious Upload to Attacker--><g id="link_Malicious Upload_Attacker"><path d="M907.0709,40.1545 C931.5709,49.0345 957.46,58.84 985,70.5 C994.82,74.66 1005.46,79.58 1014.73,84.02 " fill="none" id="Malicious Upload-backto-Attacker" style="stroke:#181818;stroke-width:1.0;"/><polygon fill="#181818" points="901.43,38.11,908.5283,44.9374,906.1308,39.8138,911.2544,37.4162,901.43,38.11" style="stroke:#181818;stroke-width:1.0;"/></g><!--reverse link Add Photo To Portfolio to Denial of Service Attack--><g id="link_Add Photo To Portfolio_Denial of Service Attack"><path d="M623.7227,113.5675 C675.3427,126.7775 743.26,144.15 795.37,157.48 " fill="none" id="Add Photo To Portfolio-backto-Denial of Service Attack" style="stroke:#181818;stroke-width:1.0;"/><polygon fill="#181818" points="617.91,112.08,625.6373,118.1864,622.7539,113.3196,627.6207,110.4362,617.91,112.08" style="stroke:#181818;stroke-width:1.0;"/><text fill="#000000" font-family="sans-serif" font-size="13" lengthAdjust="spacing" textLength="54" x="679" y="123.9951">threatens</text></g><!--reverse link Add Photo To Portfolio to Unauthorized Access--><g id="link_Add Photo To Portfolio_Unauthorized Access"><path d="M654.13,96.5 C693.23,96.5 732.71,96.5 771.31,96.5 " fill="none" id="Add Photo To Portfolio-backto-Unauthorized Access" style="stroke:#181818;stroke-width:1.0;"/><polygon fill="#181818" points="648.13,96.5,657.13,100.5,653.13,96.5,657.13,92.5,648.13,96.5" style="stroke:#181818;stroke-width:1.0;"/><text fill="#000000" font-family="sans-serif" font-size="13" lengthAdjust="spacing" textLength="54" x="679" y="92.9951">threatens</text></g><!--reverse link Add Photo To Portfolio to Malicious Upload--><g id="link_Add Photo To Portfolio_Malicious Upload"><path d="M625.5608,79.8751 C680.7008,66.4951 754.16,48.68 805.87,36.14 " fill="none" id="Add Photo To Portfolio-backto-Malicious Upload" style="stroke:#181818;stroke-width:1.0;"/><polygon fill="#181818" points="619.73,81.29,629.4194,83.0549,624.589,80.1109,627.5329,75.2805,619.73,81.29" style="stroke:#181818;stroke-width:1.0;"/><text fill="#000000" font-family="sans-serif" font-size="13" lengthAdjust="spacing" textLength="54" x="679" y="51.9951">threatens</text></g><!--SRC=[bP1D2i9034RtSug06rtq0Yw4WbkX-7E0C9CwmQ4fcTI5frUnejXMQ7R9l8GtNwBQm0IKpz4Wi98tbiOvz2OALHIJis8RIVjHQOR-ycXTbybZ9bYM8Rn8E0fKebPBObbzW2qrZ0caXWFfbJtrLrQms5FuSAS6EukYVAC0fVUKyo-omyIUfSjmQfDWwD_TjoaKhzfCgxr_0KNNFhb9mm4vvZY01fRkKNzYwDScR64D5fNGgCbkFAGv1uOHpjY-0m00]--></g></svg>