<?xml version="1.0" encoding="us-ascii" standalone="no"?><svg xmlns="http://www.w3.org/2000/svg" xmlns:xlink="http://www.w3.org/1999/xlink" contentStyleType="text/css" height="195px" preserveAspectRatio="none" style="width:983px;height:195px;background:#FFFFFF;" version="1.1" viewBox="0 0 983 195" width="983px" zoomAndPan="magnify"><defs/><g><!--entity Admin--><g id="elem_Admin"><ellipse cx="25.5" cy="72" fill="#F1F1F1" rx="8" ry="8" style="stroke:#181818;stroke-width:0.5;"/><path d="M25.5,80 L25.5,107 M12.5,88 L38.5,88 M25.5,107 L12.5,122 M25.5,107 L38.5,122 " fill="none" style="stroke:#181818;stroke-width:0.5;"/><text fill="#000000" font-family="sans-serif" font-size="14" lengthAdjust="spacing" textLength="39" x="6" y="138.0332">Admin</text></g><!--entity Attacker--><g id="elem_Attacker"><ellipse cx="950" cy="72" fill="#F1F1F1" rx="8" ry="8" style="stroke:#181818;stroke-width:0.5;"/><path d="M950,80 L950,107 M937,88 L963,88 M950,107 L937,122 M950,107 L963,122 " fill="none" style="stroke:#181818;stroke-width:0.5;"/><text fill="#000000" font-family="sans-serif" font-size="14" lengthAdjust="spacing" textLength="52" x="924" y="138.0332">Attacker</text></g><g id="elem_Deactivate User"><ellipse cx="490.481" cy="102.2962" fill="#F1F1F1" rx="74.481" ry="17.2962" style="stroke:#181818;stroke-width:0.5;"/><text fill="#000000" font-family="sans-serif" font-size="14" lengthAdjust="spacing" textLength="100" x="437.481" y="106.8128">Deactivate User</text></g><g id="elem_Data Breach"><ellipse cx="772.0842" cy="173.3168" fill="#FF0000" rx="67.0842" ry="15.8168" style="stroke:#181818;stroke-width:0.5;"/><text fill="#000000" font-family="sans-serif" font-size="14" lengthAdjust="spacing" textLength="79" x="729.5842" y="177.8334">Data Breach</text></g><g id="elem_Unauthorized Access"><ellipse cx="771.8923" cy="102.3785" fill="#FF0000" rx="87.3923" ry="19.8785" style="stroke:#181818;stroke-width:0.5;"/><text fill="#000000" font-family="sans-serif" font-size="14" lengthAdjust="spacing" textLength="132" x="705.8923" y="106.107">Unauthorized Access</text></g><g id="elem_Malicious Deactivation"><ellipse cx="771.8297" cy="26.5659" fill="#FF0000" rx="90.8297" ry="20.5659" style="stroke:#181818;stroke-width:0.5;"/><text fill="#000000" font-family="sans-serif" font-size="14" lengthAdjust="spacing" textLength="140" x="701.8297" y="30.2945">Malicious Deactivation</text></g><!--link Admin to Deactivate User--><g id="link_Admin_Deactivate User"><path d="M45.13,102.5 C61.24,102.5 85.16,102.5 106,102.5 C106,102.5 106,102.5 355,102.5 C374.73,102.5 390.09,102.5 409.85,102.5 " fill="none" id="Admin-to-Deactivate User" style="stroke:#181818;stroke-width:1.0;"/><polygon fill="#181818" points="415.85,102.5,406.85,98.5,410.85,102.5,406.85,106.5,415.85,102.5" style="stroke:#181818;stroke-width:1.0;"/></g><!--reverse link Data Breach to Attacker--><g id="link_Data Breach_Attacker"><path d="M816.0753,158.3577 C832.3253,152.5077 845.87,147.42 863,140.5 C883.74,132.13 906.91,121.83 923.97,114.07 " fill="none" id="Data Breach-backto-Attacker" style="stroke:#181818;stroke-width:1.0;"/><polygon fill="#181818" points="810.43,160.39,820.2529,161.1051,815.1344,158.6964,817.5431,153.578,810.43,160.39" style="stroke:#181818;stroke-width:1.0;"/></g><!--reverse link Unauthorized Access to Attacker--><g id="link_Unauthorized Access_Attacker"><path d="M865.71,102.5 C889.14,102.5 906.69,102.5 923.72,102.5 " fill="none" id="Unauthorized Access-backto-Attacker" style="stroke:#181818;stroke-width:1.0;"/><polygon fill="#181818" points="859.71,102.5,868.71,106.5,864.71,102.5,868.71,98.5,859.71,102.5" style="stroke:#181818;stroke-width:1.0;"/></g><!--reverse link Malicious Deactivation to Attacker--><g id="link_Malicious Deactivation_Attacker"><path d="M823.0386,46.5188 C845.9986,55.8488 868.85,65.37 894,76.5 C903.85,80.86 914.58,85.87 923.93,90.33 " fill="none" id="Malicious Deactivation-backto-Attacker" style="stroke:#181818;stroke-width:1.0;"/><polygon fill="#181818" points="817.48,44.26,824.312,51.3539,822.1122,46.1423,827.3237,43.9424,817.48,44.26" style="stroke:#181818;stroke-width:1.0;"/></g><!--reverse link Deactivate User to Data Breach--><g id="link_Deactivate User_Data Breach"><path d="M547.6054,116.7567 C599.7854,130.0067 674.86,149.08 725.28,161.89 " fill="none" id="Deactivate User-backto-Data Breach" style="stroke:#181818;stroke-width:1.0;"/><polygon fill="#181818" points="541.79,115.28,549.5287,121.372,546.6362,116.5106,551.4976,113.6181,541.79,115.28" style="stroke:#181818;stroke-width:1.0;"/><text fill="#000000" font-family="sans-serif" font-size="13" lengthAdjust="spacing" textLength="54" x="596" y="125.9951">threatens</text></g><!--reverse link Deactivate User to Unauthorized Access--><g id="link_Deactivate User_Unauthorized Access"><path d="M571.3,102.5 C607.85,102.5 646.21,102.5 684.37,102.5 " fill="none" id="Deactivate User-backto-Unauthorized Access" style="stroke:#181818;stroke-width:1.0;"/><polygon fill="#181818" points="565.3,102.5,574.3,106.5,570.3,102.5,574.3,98.5,565.3,102.5" style="stroke:#181818;stroke-width:1.0;"/><text fill="#000000" font-family="sans-serif" font-size="13" lengthAdjust="spacing" textLength="54" x="596" y="98.9951">threatens</text></g><!--reverse link Deactivate User to Malicious Deactivation--><g id="link_Deactivate User_Malicious Deactivation"><path d="M545.6596,87.7751 C593.7796,74.6851 661.86,56.18 713.08,42.25 " fill="none" id="Deactivate User-backto-Malicious Deactivation" style="stroke:#181818;stroke-width:1.0;"/><polygon fill="#181818" points="539.87,89.35,549.6044,90.8473,544.6947,88.0376,547.5045,83.1279,539.87,89.35" style="stroke:#181818;stroke-width:1.0;"/><text fill="#000000" font-family="sans-serif" font-size="13" lengthAdjust="spacing" textLength="54" x="596" y="55.9951">threatens</text></g><!--SRC=[ZP0z3i8m34RtdC8I2nrw0GQa8bOMf1x0IWonA0bAd0wSdgXGAFsHwidIzom_kw6BW7W8VBK2XWDfOU-KGYq-G6NkxFfU1FMDWb8faiP8i3rIZhX58QWZXMAGe20SGivj0PipcLzKEqnYVU0d6QYqfXZ7o0aRrknJXE-6BFMXL2S5vRlsCnQzAPJfqG43cKaufpE15eHKhlzJ-uqZ9TY1s8m8kQZcFx1gSkanQuPV]--></g></svg>