<?xml version="1.0" encoding="us-ascii" standalone="no"?><svg xmlns="http://www.w3.org/2000/svg" xmlns:xlink="http://www.w3.org/1999/xlink" contentStyleType="text/css" height="828px" preserveAspectRatio="none" style="width:348px;height:828px;background:#FFFFFF;" version="1.1" viewBox="0 0 348 828" width="348px" zoomAndPan="magnify"><defs/><g><!--entity Guest--><g id="elem_Guest"><ellipse cx="49.5" cy="205.5" fill="#F1F1F1" rx="8" ry="8" style="stroke:#181818;stroke-width:0.5;"/><path d="M49.5,213.5 L49.5,240.5 M36.5,221.5 L62.5,221.5 M49.5,240.5 L36.5,255.5 M49.5,240.5 L62.5,255.5 " fill="none" style="stroke:#181818;stroke-width:0.5;"/><text fill="#000000" font-family="sans-serif" font-size="14" lengthAdjust="spacing" textLength="38" x="30.5" y="271.5332">Guest</text></g><!--entity Client--><g id="elem_Client"><ellipse cx="49.5" cy="381.5" fill="#F1F1F1" rx="8" ry="8" style="stroke:#181818;stroke-width:0.5;"/><path d="M49.5,389.5 L49.5,416.5 M36.5,397.5 L62.5,397.5 M49.5,416.5 L36.5,431.5 M49.5,416.5 L62.5,431.5 " fill="none" style="stroke:#181818;stroke-width:0.5;"/><text fill="#000000" font-family="sans-serif" font-size="14" lengthAdjust="spacing" textLength="36" x="31.5" y="447.5332">Client</text></g><!--entity Photographer--><g id="elem_Photographer"><ellipse cx="49.5" cy="30.5" fill="#F1F1F1" rx="8" ry="8" style="stroke:#181818;stroke-width:0.5;"/><path d="M49.5,38.5 L49.5,65.5 M36.5,46.5 L62.5,46.5 M49.5,65.5 L36.5,80.5 M49.5,65.5 L62.5,80.5 " fill="none" style="stroke:#181818;stroke-width:0.5;"/><text fill="#000000" font-family="sans-serif" font-size="14" lengthAdjust="spacing" textLength="87" x="6" y="96.5332">Photographer</text></g><!--entity Admin--><g id="elem_Admin"><ellipse cx="49.5" cy="635.5" fill="#F1F1F1" rx="8" ry="8" style="stroke:#181818;stroke-width:0.5;"/><path d="M49.5,643.5 L49.5,670.5 M36.5,651.5 L62.5,651.5 M49.5,670.5 L36.5,685.5 M49.5,670.5 L62.5,685.5 " fill="none" style="stroke:#181818;stroke-width:0.5;"/><text fill="#000000" font-family="sans-serif" font-size="14" lengthAdjust="spacing" textLength="39" x="30" y="701.5332">Admin</text></g><g id="elem_Sign Up"><ellipse cx="248.1812" cy="169.9655" fill="#F1F1F1" rx="46.1812" ry="15.4655" style="stroke:#181818;stroke-width:0.5;"/><text fill="#000000" font-family="sans-serif" font-size="14" lengthAdjust="spacing" textLength="49" x="222.2471" y="174.108">Sign Up</text></g><g id="elem_Login"><ellipse cx="248.234" cy="235.9517" fill="#F1F1F1" rx="36.234" ry="15.4517" style="stroke:#181818;stroke-width:0.5;"/><text fill="#000000" font-family="sans-serif" font-size="14" lengthAdjust="spacing" textLength="35" x="230.734" y="239.6802">Login</text></g><g id="elem_Browse Photos"><ellipse cx="247.7859" cy="303.8572" fill="#F1F1F1" rx="72.2859" ry="16.8572" style="stroke:#181818;stroke-width:0.5;"/><text fill="#000000" font-family="sans-serif" font-size="14" lengthAdjust="spacing" textLength="94" x="197.7859" y="308.3738">Browse Photos</text></g><g id="elem_Add a Photo to Cart"><ellipse cx="247.9267" cy="375.7853" fill="#F1F1F1" rx="84.4267" ry="19.2853" style="stroke:#181818;stroke-width:0.5;"/><text fill="#000000" font-family="sans-serif" font-size="14" lengthAdjust="spacing" textLength="125" x="185.4267" y="379.5139">Add a Photo to Cart</text></g><g id="elem_Checkout Cart"><ellipse cx="248.2113" cy="447.1423" fill="#F1F1F1" rx="71.2113" ry="16.6423" style="stroke:#181818;stroke-width:0.5;"/><text fill="#000000" font-family="sans-serif" font-size="14" lengthAdjust="spacing" textLength="91" x="199.7113" y="451.6589">Checkout Cart</text></g><g id="elem_View Purchased Photos"><ellipse cx="247.7514" cy="519.8503" fill="#F1F1F1" rx="94.7514" ry="21.3503" style="stroke:#181818;stroke-width:0.5;"/><text fill="#000000" font-family="sans-serif" font-size="14" lengthAdjust="spacing" textLength="149" x="173.2514" y="523.5788">View Purchased Photos</text></g><g id="elem_Create a Portfolio"><ellipse cx="248.1819" cy="24.1364" fill="#F1F1F1" rx="78.6819" ry="18.1364" style="stroke:#181818;stroke-width:0.5;"/><text fill="#000000" font-family="sans-serif" font-size="14" lengthAdjust="spacing" textLength="111" x="191.0947" y="28.3083">Create a Portfolio</text></g><g id="elem_Put a Photo up for sale"><ellipse cx="248.0017" cy="98.0003" fill="#F1F1F1" rx="93.0017" ry="21.0003" style="stroke:#181818;stroke-width:0.5;"/><text fill="#000000" font-family="sans-serif" font-size="14" lengthAdjust="spacing" textLength="145" x="175.5017" y="101.7289">Put a Photo up for sale</text></g><g id="elem_Delete a Photo"><ellipse cx="247.7859" cy="736.8572" fill="#F1F1F1" rx="72.2859" ry="16.8572" style="stroke:#181818;stroke-width:0.5;"/><text fill="#000000" font-family="sans-serif" font-size="14" lengthAdjust="spacing" textLength="94" x="197.7859" y="741.3738">Delete a Photo</text></g><g id="elem_Browse Users"><ellipse cx="247.957" cy="805.7914" fill="#F1F1F1" rx="69.457" ry="16.2914" style="stroke:#181818;stroke-width:0.5;"/><text fill="#000000" font-family="sans-serif" font-size="14" lengthAdjust="spacing" textLength="86" x="201.957" y="810.308">Browse Users</text></g><g id="elem_Suspend a User"><ellipse cx="247.8525" cy="593.8705" fill="#F1F1F1" rx="74.8525" ry="17.3705" style="stroke:#181818;stroke-width:0.5;"/><text fill="#000000" font-family="sans-serif" font-size="14" lengthAdjust="spacing" textLength="101" x="194.3525" y="598.3871">Suspend a User</text></g><g id="elem_Edit a User's Roles"><ellipse cx="247.9202" cy="665.784" fill="#F1F1F1" rx="81.9202" ry="18.784" style="stroke:#181818;stroke-width:0.5;"/><text fill="#000000" font-family="sans-serif" font-size="14" lengthAdjust="spacing" textLength="119" x="188.2512" y="669.5629">Edit a User's Roles</text></g><!--link Guest to Sign Up--><g id="link_Guest_Sign Up"><path d="M68.63,229.91 C101.89,218.74 167.3426,196.7613 209.0326,182.7513 " fill="none" id="Guest-to-Sign Up" style="stroke:#181818;stroke-width:1.0;"/><polygon fill="#181818" points="214.72,180.84,204.9146,179.9153,209.9805,182.4327,207.463,187.4985,214.72,180.84" style="stroke:#181818;stroke-width:1.0;"/></g><!--link Guest to Login--><g id="link_Guest_Login"><path d="M68.63,236 C101.13,236 163.8,236 205.81,236 " fill="none" id="Guest-to-Login" style="stroke:#181818;stroke-width:1.0;"/><polygon fill="#181818" points="211.81,236,202.81,232,206.81,236,202.81,240,211.81,236" style="stroke:#181818;stroke-width:1.0;"/></g><!--link Guest to Browse Photos--><g id="link_Guest_Browse Photos"><path d="M68.63,242.28 C99.8,253.06 158.5597,273.3984 200.8497,288.0284 " fill="none" id="Guest-to-Browse Photos" style="stroke:#181818;stroke-width:1.0;"/><polygon fill="#181818" points="206.52,289.99,199.3223,283.2674,201.7948,288.3553,196.7068,290.8278,206.52,289.99" style="stroke:#181818;stroke-width:1.0;"/></g><!--link Client to Browse Photos--><g id="link_Client_Browse Photos"><path d="M67.72,397.58 C87.37,381.64 120.96,355.99 153,339 C168.85,330.6 181.5023,325.2875 197.7323,319.5575 " fill="none" id="Client-to-Browse Photos" style="stroke:#181818;stroke-width:1.0;"/><polygon fill="#181818" points="203.39,317.56,193.5717,316.7844,198.6752,319.2246,196.235,324.328,203.39,317.56" style="stroke:#181818;stroke-width:1.0;"/></g><!--link Client to Add a Photo to Cart--><g id="link_Client_Add a Photo to Cart"><path d="M67.59,408.87 C92.71,404.27 135.0584,396.5121 175.1984,389.1521 " fill="none" id="Client-to-Add a Photo to Cart" style="stroke:#181818;stroke-width:1.0;"/><polygon fill="#181818" points="181.1,388.07,171.5262,385.7588,176.182,388.9718,172.969,393.6276,181.1,388.07" style="stroke:#181818;stroke-width:1.0;"/></g><!--link Client to Checkout Cart--><g id="link_Client_Checkout Cart"><path d="M67.59,415.04 C94.86,419.9 143.473,428.5577 185.293,436.0077 " fill="none" id="Client-to-Checkout Cart" style="stroke:#181818;stroke-width:1.0;"/><polygon fill="#181818" points="191.2,437.06,183.041,431.5435,186.2775,436.1831,181.638,439.4196,191.2,437.06" style="stroke:#181818;stroke-width:1.0;"/></g><!--link Client to View Purchased Photos--><g id="link_Client_View Purchased Photos"><path d="M67.61,425.07 C87.44,439.85 121.44,464.05 153,481 C167.01,488.52 177.2393,493.3018 191.8093,499.2818 " fill="none" id="Client-to-View Purchased Photos" style="stroke:#181818;stroke-width:1.0;"/><polygon fill="#181818" points="197.36,501.56,190.5528,494.4423,192.7344,499.6615,187.5152,501.8432,197.36,501.56" style="stroke:#181818;stroke-width:1.0;"/></g><!--link Photographer to Create a Portfolio--><g id="link_Photographer_Create a Portfolio"><path d="M93.14,52.97 C120.57,47.81 150.7237,42.1308 181.0337,36.4208 " fill="none" id="Photographer-to-Create a Portfolio" style="stroke:#181818;stroke-width:1.0;"/><polygon fill="#181818" points="186.93,35.31,177.3451,33.0453,182.0164,36.2357,178.8261,40.907,186.93,35.31" style="stroke:#181818;stroke-width:1.0;"/></g><!--link Photographer to Put a Photo up for sale--><g id="link_Photographer_Put a Photo up for sale"><path d="M93.14,69.03 C117.29,73.58 142.2437,78.2693 169.9537,83.4893 " fill="none" id="Photographer-to-Put a Photo up for sale" style="stroke:#181818;stroke-width:1.0;"/><polygon fill="#181818" points="175.85,84.6,167.7461,79.003,170.9364,83.6744,166.2651,86.8647,175.85,84.6" style="stroke:#181818;stroke-width:1.0;"/></g><!--link Admin to Browse Photos--><g id="link_Admin_Browse Photos"><path d="M58.26,626.91 C74.3,549.65 112.97,381.19 153,339 C163.55,327.88 172.3085,322.3129 186.6685,317.1129 " fill="none" id="Admin-to-Browse Photos" style="stroke:#181818;stroke-width:1.0;"/><polygon fill="#181818" points="192.31,315.07,182.4858,314.3733,187.6087,316.7724,185.2097,321.8953,192.31,315.07" style="stroke:#181818;stroke-width:1.0;"/></g><!--link Admin to Delete a Photo--><g id="link_Admin_Delete a Photo"><path d="M69.34,672.81 C101.04,684.26 160.0367,705.582 201.9867,720.732 " fill="none" id="Admin-to-Delete a Photo" style="stroke:#181818;stroke-width:1.0;"/><polygon fill="#181818" points="207.63,722.77,200.5238,715.9508,202.9273,721.0716,197.8064,723.4751,207.63,722.77" style="stroke:#181818;stroke-width:1.0;"/></g><!--link Admin to Browse Users--><g id="link_Admin_Browse Users"><path d="M69.14,691.04 C87.96,714.79 119.05,750.02 153,772 C167.42,781.34 179.063,786.6275 194.883,791.9475 " fill="none" id="Admin-to-Browse Users" style="stroke:#181818;stroke-width:1.0;"/><polygon fill="#181818" points="200.57,793.86,193.3144,787.1999,195.8308,792.2663,190.7645,794.7827,200.57,793.86" style="stroke:#181818;stroke-width:1.0;"/></g><!--link Admin to Suspend a User--><g id="link_Admin_Suspend a User"><path d="M69.34,659.1 C100.85,647.55 159.2659,626.1433 201.2359,610.7733 " fill="none" id="Admin-to-Suspend a User" style="stroke:#181818;stroke-width:1.0;"/><polygon fill="#181818" points="206.87,608.71,197.0434,608.0489,202.1749,610.4294,199.7944,615.561,206.87,608.71" style="stroke:#181818;stroke-width:1.0;"/></g><!--link Admin to Edit a User's Roles--><g id="link_Admin_Edit a User's Roles"><path d="M69.34,666 C91.63,666 124.19,666 159.71,666 " fill="none" id="Admin-to-Edit a User's Roles" style="stroke:#181818;stroke-width:1.0;"/><polygon fill="#181818" points="165.71,666,156.71,662,160.71,666,156.71,670,165.71,666" style="stroke:#181818;stroke-width:1.0;"/></g><!--SRC=[XLB1ReCm3Btp5RvjE_GN9hLiscK7jAgzHuc1Q1b6ZgF-_WAacWLKEu7Vir_YznAm5H02zbqlu3oZ5Kz3LHahnF2HC4hvhuF7uLuqFGbrRCOUkK17z-FpO8feJKHuFljkWCluyeTyKkS7LP-ORlaxQqM57vq3iy3JtMh3ejYwH_jDITRurUCDciIspwNRgjQCHd0I9fQMWYT5DbdlVcGQeStxH1DGTRnXm6LyQjfkSOd8-hXpYYCEqo8JeuXtvwMWJn6-A60UgsQduN1uLSOfh5Yda9LvIph_KhlMweQLkvfwOB1-2aLZn-bjrqFBvuUqkubYrd5iXqeWYbX7egZTK7u1]--></g></svg>