<?xml version="1.0" encoding="us-ascii" standalone="no"?><svg xmlns="http://www.w3.org/2000/svg" xmlns:xlink="http://www.w3.org/1999/xlink" contentStyleType="text/css" height="317px" preserveAspectRatio="none" style="width:627px;height:317px;background:#FFFFFF;" version="1.1" viewBox="0 0 627 317" width="627px" zoomAndPan="magnify"><defs/><g><!--entity Guest--><g id="elem_Guest"><ellipse cx="25.5" cy="14" fill="#F1F1F1" rx="8" ry="8" style="stroke:#181818;stroke-width:0.5;"/><path d="M25.5,22 L25.5,49 M12.5,30 L38.5,30 M25.5,49 L12.5,64 M25.5,49 L38.5,64 " fill="none" style="stroke:#181818;stroke-width:0.5;"/><text fill="#000000" font-family="sans-serif" font-size="14" lengthAdjust="spacing" textLength="38" x="6.5" y="80.6074">Guest</text></g><!--entity Client--><g id="elem_Client"><ellipse cx="25.5" cy="128" fill="#F1F1F1" rx="8" ry="8" style="stroke:#181818;stroke-width:0.5;"/><path d="M25.5,136 L25.5,163 M12.5,144 L38.5,144 M25.5,163 L12.5,178 M25.5,163 L38.5,178 " fill="none" style="stroke:#181818;stroke-width:0.5;"/><text fill="#000000" font-family="sans-serif" font-size="14" lengthAdjust="spacing" textLength="36" x="7.5" y="194.6074">Client</text></g><!--entity Admin--><g id="elem_Admin"><ellipse cx="25.5" cy="242" fill="#F1F1F1" rx="8" ry="8" style="stroke:#181818;stroke-width:0.5;"/><path d="M25.5,250 L25.5,277 M12.5,258 L38.5,258 M25.5,277 L12.5,292 M25.5,277 L38.5,292 " fill="none" style="stroke:#181818;stroke-width:0.5;"/><text fill="#000000" font-family="sans-serif" font-size="14" lengthAdjust="spacing" textLength="39" x="6" y="308.6074">Admin</text></g><!--entity Attacker--><g id="elem_Attacker"><ellipse cx="594" cy="128" fill="#F1F1F1" rx="8" ry="8" style="stroke:#181818;stroke-width:0.5;"/><path d="M594,136 L594,163 M581,144 L607,144 M594,163 L581,178 M594,163 L607,178 " fill="none" style="stroke:#181818;stroke-width:0.5;"/><text fill="#000000" font-family="sans-serif" font-size="14" lengthAdjust="spacing" textLength="52" x="568" y="194.6074">Attacker</text></g><g id="elem_Browse Photos"><ellipse cx="179.8416" cy="158.8683" fill="#F1F1F1" rx="74.8416" ry="17.3683" style="stroke:#181818;stroke-width:0.5;"/><text fill="#000000" font-family="sans-serif" font-size="14" lengthAdjust="spacing" textLength="94" x="129.8416" y="163.672">Browse Photos</text></g><g id="elem_Unauthorized Access"><ellipse cx="411.6522" cy="49.2304" fill="#FF0000" rx="89.1522" ry="20.2304" style="stroke:#181818;stroke-width:0.5;"/><text fill="#000000" font-family="sans-serif" font-size="14" lengthAdjust="spacing" textLength="132" x="342.6522" y="54.0342">Unauthorized Access</text></g><g id="elem_Content Scraping"><ellipse cx="411.6222" cy="123.0244" fill="#FF0000" rx="80.6222" ry="18.5244" style="stroke:#181818;stroke-width:0.5;"/><text fill="#000000" font-family="sans-serif" font-size="14" lengthAdjust="spacing" textLength="110" x="353.6222" y="127.8282">Content Scraping</text></g><g id="elem_Data Harvesting"><ellipse cx="411.32" cy="194.864" fill="#FF0000" rx="77.32" ry="17.864" style="stroke:#181818;stroke-width:0.5;"/><text fill="#000000" font-family="sans-serif" font-size="14" lengthAdjust="spacing" textLength="101" x="357.82" y="199.6677">Data Harvesting</text></g><g id="elem_Denial of Service Attack"><ellipse cx="411.5275" cy="270.2055" fill="#FF0000" rx="96.5275" ry="21.7055" style="stroke:#181818;stroke-width:0.5;"/><text fill="#000000" font-family="sans-serif" font-size="14" lengthAdjust="spacing" textLength="150" x="334.3422" y="274.7628">Denial of Service Attack</text></g><!--reverse link Unauthorized Access to Attacker--><g id="link_Unauthorized Access_Attacker"><path d="M468.1236,67.5707 C483.2236,73.4307 493.93,78.55 508,87 C529.89,100.14 551.8,118.87 567.9,133.94 " fill="none" id="Unauthorized Access-backto-Attacker" style="stroke:#181818;stroke-width:1.0;"/><polygon fill="#181818" points="462.53,65.4,469.4732,72.3852,467.1913,67.209,472.3675,64.9271,462.53,65.4" style="stroke:#181818;stroke-width:1.0;"/></g><!--reverse link Content Scraping to Attacker--><g id="link_Content Scraping_Attacker"><path d="M478.7341,136.2136 C511.1241,142.6736 543.42,149.11 567.9,153.99 " fill="none" id="Content Scraping-backto-Attacker" style="stroke:#181818;stroke-width:1.0;"/><polygon fill="#181818" points="472.85,135.04,480.8938,140.7231,477.7534,136.018,482.4585,132.8776,472.85,135.04" style="stroke:#181818;stroke-width:1.0;"/></g><!--reverse link Data Harvesting to Attacker--><g id="link_Data Harvesting_Attacker"><path d="M476.9841,182.1364 C509.7241,175.6064 542.93,168.99 567.86,164.01 " fill="none" id="Data Harvesting-backto-Attacker" style="stroke:#181818;stroke-width:1.0;"/><polygon fill="#181818" points="471.1,183.31,480.7085,185.4724,476.0034,182.332,479.1438,177.6269,471.1,183.31" style="stroke:#181818;stroke-width:1.0;"/></g><!--reverse link Denial of Service Attack to Attacker--><g id="link_Denial of Service Attack_Attacker"><path d="M469.4941,249.456 C484.1641,243.386 494.33,238.31 508,230 C529.69,216.81 551.61,198.35 567.76,183.56 " fill="none" id="Denial of Service Attack-backto-Attacker" style="stroke:#181818;stroke-width:1.0;"/><polygon fill="#181818" points="463.95,251.75,473.7956,252.0051,468.5701,249.8383,470.7369,244.6129,463.95,251.75" style="stroke:#181818;stroke-width:1.0;"/></g><!--reverse link Browse Photos to Unauthorized Access--><g id="link_Browse Photos_Unauthorized Access"><path d="M214.2235,139.7603 C241.0135,124.5003 277.53,104.45 315,87 C330.85,79.62 348.56,72.32 364.39,66.12 " fill="none" id="Browse Photos-backto-Unauthorized Access" style="stroke:#181818;stroke-width:1.0;"/><polygon fill="#181818" points="209.01,142.73,218.8101,141.7511,213.3546,140.2552,214.8505,134.7998,209.01,142.73" style="stroke:#181818;stroke-width:1.0;"/></g><!--reverse link Browse Photos to Content Scraping--><g id="link_Browse Photos_Content Scraping"><path d="M248.7274,148.3795 C280.1974,143.4395 312.54,138.37 344.57,133.34 " fill="none" id="Browse Photos-backto-Content Scraping" style="stroke:#181818;stroke-width:1.0;"/><polygon fill="#181818" points="242.8,149.31,252.3114,151.8659,247.7395,148.5346,251.0708,143.9627,242.8,149.31" style="stroke:#181818;stroke-width:1.0;"/></g><!--reverse link Browse Photos to Data Harvesting--><g id="link_Browse Photos_Data Harvesting"><path d="M248.7275,169.6198 C280.8575,174.6598 314.15,179.89 346.58,184.97 " fill="none" id="Browse Photos-backto-Data Harvesting" style="stroke:#181818;stroke-width:1.0;"/><polygon fill="#181818" points="242.8,168.69,251.0714,174.0364,247.7396,169.4648,252.3111,166.133,242.8,168.69" style="stroke:#181818;stroke-width:1.0;"/></g><!--reverse link Browse Photos to Denial of Service Attack--><g id="link_Browse Photos_Denial of Service Attack"><path d="M214.8756,178.0527 C241.7456,192.9727 277.99,212.49 315,230 C330.6,237.38 347.93,244.85 363.5,251.31 " fill="none" id="Browse Photos-backto-Denial of Service Attack" style="stroke:#181818;stroke-width:1.0;"/><polygon fill="#181818" points="209.63,175.14,215.5566,183.0061,214.0013,177.5672,219.4402,176.012,209.63,175.14" style="stroke:#181818;stroke-width:1.0;"/></g><!--link Guest to Browse Photos--><g id="link_Guest_Browse Photos"><path d="M44.59,58.52 C72.6,79.46 121.5845,116.0774 151.9345,138.7674 " fill="none" id="Guest-to-Browse Photos" style="stroke:#181818;stroke-width:1.0;"/><polygon fill="#181818" points="156.74,142.36,151.9268,133.7674,152.7354,139.3661,147.1366,140.1747,156.74,142.36" style="stroke:#181818;stroke-width:1.0;"/></g><!--link Client to Browse Photos--><g id="link_Client_Browse Photos"><path d="M43.7,159 C58.81,159 75.89,159 98.74,159 " fill="none" id="Client-to-Browse Photos" style="stroke:#181818;stroke-width:1.0;"/><polygon fill="#181818" points="104.74,159,95.74,155,99.74,159,95.74,163,104.74,159" style="stroke:#181818;stroke-width:1.0;"/></g><!--link Admin to Browse Photos--><g id="link_Admin_Browse Photos"><path d="M45.2,259.02 C73.35,237.97 121.735,201.8134 151.875,179.2734 " fill="none" id="Admin-to-Browse Photos" style="stroke:#181818;stroke-width:1.0;"/><polygon fill="#181818" points="156.68,175.68,147.077,177.8667,152.6759,178.6745,151.8681,184.2734,156.68,175.68" style="stroke:#181818;stroke-width:1.0;"/></g><!--SRC=[TPB1Ri8m38RlVWfBNE3GDq183AJjE57n05Pgg4KN8yS5YQTVnuggjk4K9zylvOkTXa-EhcXohXqhCGuk6W4ek1f-jfoyhtUDS7njjjMFn5VjJk721W1jua29SVbXUk_MxrfTqseuFqPglLQJ1rUu3O5JMk7YmDKGsMdqxY8iWz5LuddAz-I4NsItJYs7EGerg2SisMuIkFVhSm1PXtLH3E-OAupnr612tmcCO-CE_R6iM3Ouyykcffhvq3lRhbFm73yMnMOsqF_Fa4NFhv4by0i0]--></g></svg>