<?xml version="1.0" encoding="us-ascii" standalone="no"?><svg xmlns="http://www.w3.org/2000/svg" xmlns:xlink="http://www.w3.org/1999/xlink" contentStyleType="text/css" height="414px" preserveAspectRatio="none" style="width:616px;height:414px;background:#FFFFFF;" version="1.1" viewBox="0 0 616 414" width="616px" zoomAndPan="magnify"><defs/><g><!--entity Guest--><g id="elem_Guest"><ellipse cx="25" cy="153.5" fill="#F1F1F1" rx="8" ry="8" style="stroke:#181818;stroke-width:0.5;"/><path d="M25,161.5 L25,188.5 M12,169.5 L38,169.5 M25,188.5 L12,203.5 M25,188.5 L38,203.5 " fill="none" style="stroke:#181818;stroke-width:0.5;"/><text fill="#000000" font-family="sans-serif" font-size="14" lengthAdjust="spacing" textLength="38" x="6" y="220.1074">Guest</text></g><!--entity Attacker--><g id="elem_Attacker"><ellipse cx="583" cy="181.5" fill="#F1F1F1" rx="8" ry="8" style="stroke:#181818;stroke-width:0.5;"/><path d="M583,189.5 L583,216.5 M570,197.5 L596,197.5 M583,216.5 L570,231.5 M583,216.5 L596,231.5 " fill="none" style="stroke:#181818;stroke-width:0.5;"/><text fill="#000000" font-family="sans-serif" font-size="14" lengthAdjust="spacing" textLength="52" x="557" y="248.1074">Attacker</text></g><g id="elem_Sign Up"><ellipse cx="151.5726" cy="99.3011" fill="#F1F1F1" rx="46.5726" ry="16.3011" style="stroke:#181818;stroke-width:0.5;"/><text fill="#000000" font-family="sans-serif" font-size="14" lengthAdjust="spacing" textLength="49" x="124.0726" y="104.1049">Sign Up</text></g><g id="elem_Login"><ellipse cx="151.2555" cy="217.6756" fill="#F1F1F1" rx="36.2555" ry="16.1756" style="stroke:#181818;stroke-width:0.5;"/><text fill="#000000" font-family="sans-serif" font-size="14" lengthAdjust="spacing" textLength="35" x="132.9112" y="221.8069">Login</text></g><g id="elem_Brute Force Attack"><ellipse cx="354.6549" cy="103.631" fill="#FF0000" rx="83.6549" ry="19.131" style="stroke:#181818;stroke-width:0.5;"/><text fill="#000000" font-family="sans-serif" font-size="14" lengthAdjust="spacing" textLength="118" x="292.6549" y="108.4347">Brute Force Attack</text></g><g id="elem_SQL Injection"><ellipse cx="354.4559" cy="174.6912" fill="#FF0000" rx="71.4559" ry="16.6912" style="stroke:#181818;stroke-width:0.5;"/><text fill="#000000" font-family="sans-serif" font-size="14" lengthAdjust="spacing" textLength="84" x="309.4559" y="179.4949">SQL Injection</text></g><g id="elem_Automated Registration"><ellipse cx="354.6884" cy="27.5377" fill="#FF0000" rx="95.6884" ry="21.5377" style="stroke:#181818;stroke-width:0.5;"/><text fill="#000000" font-family="sans-serif" font-size="14" lengthAdjust="spacing" textLength="148" x="278.2253" y="32.1811">Automated Registration</text></g><g id="elem_Credential Theft"><ellipse cx="354.6807" cy="244.4361" fill="#FF0000" rx="77.6807" ry="17.9361" style="stroke:#181818;stroke-width:0.5;"/><text fill="#000000" font-family="sans-serif" font-size="14" lengthAdjust="spacing" textLength="102" x="300.6807" y="249.2399">Credential Theft</text></g><g id="elem_Session Hijacking"><ellipse cx="354.6222" cy="316.5244" fill="#FF0000" rx="80.6222" ry="18.5244" style="stroke:#181818;stroke-width:0.5;"/><text fill="#000000" font-family="sans-serif" font-size="14" lengthAdjust="spacing" textLength="110" x="296.6222" y="321.3282">Session Hijacking</text></g><g id="elem_Account Takeover"><ellipse cx="354.5076" cy="389.4015" fill="#FF0000" rx="82.5076" ry="18.9015" style="stroke:#181818;stroke-width:0.5;"/><text fill="#000000" font-family="sans-serif" font-size="14" lengthAdjust="spacing" textLength="115" x="294.0076" y="394.2052">Account Takeover</text></g><!--reverse link Automated Registration to Attacker--><g id="link_Automated Registration_Attacker"><path d="M414.1218,47.656 C451.3418,62.526 494.49,84.67 527,119.5 C541.59,135.13 554.09,155.28 563.48,172.83 " fill="none" id="Automated Registration-backto-Attacker" style="stroke:#181818;stroke-width:1.0;"/><polygon fill="#181818" points="408.55,45.43,415.4237,52.4836,413.1932,47.285,418.3917,45.0545,408.55,45.43" style="stroke:#181818;stroke-width:1.0;"/><text fill="#000000" font-family="sans-serif" font-size="13" lengthAdjust="spacing" textLength="45" x="481" y="79.5283">exploits</text></g><!--reverse link Brute Force Attack to Attacker--><g id="link_Brute Force Attack_Attacker"><path d="M412.6148,120.1478 C447.6948,131.3678 488.83,146.72 527,168.5 C537.41,174.44 547.91,182.28 556.9,189.69 " fill="none" id="Brute Force Attack-backto-Attacker" style="stroke:#181818;stroke-width:1.0;"/><polygon fill="#181818" points="406.9,118.32,414.2537,124.8716,411.6623,119.8432,416.6908,117.2519,406.9,118.32" style="stroke:#181818;stroke-width:1.0;"/><text fill="#000000" font-family="sans-serif" font-size="13" lengthAdjust="spacing" textLength="45" x="481" y="142.5283">exploits</text></g><!--reverse link Credential Theft to Attacker--><g id="link_Credential Theft_Attacker"><path d="M435.4499,249.2053 C466.0399,249.3853 495.63,247.27 527,239.5 C537.22,236.97 547.76,232.36 556.85,227.65 " fill="none" id="Credential Theft-backto-Attacker" style="stroke:#181818;stroke-width:1.0;"/><polygon fill="#181818" points="429.45,249.17,438.4263,253.2229,434.4499,249.1994,438.4734,245.223,429.45,249.17" style="stroke:#181818;stroke-width:1.0;"/><text fill="#000000" font-family="sans-serif" font-size="13" lengthAdjust="spacing" textLength="45" x="481" y="235.5283">exploits</text></g><!--reverse link Session Hijacking to Attacker--><g id="link_Session Hijacking_Attacker"><path d="M432.637,307.1828 C464.967,301.1128 496.75,291.69 527,273.5 C538.12,266.81 548.28,257.17 556.77,247.52 " fill="none" id="Session Hijacking-backto-Attacker" style="stroke:#181818;stroke-width:1.0;"/><polygon fill="#181818" points="426.74,308.29,436.3236,310.5606,431.6541,307.3674,434.8473,302.6979,426.74,308.29" style="stroke:#181818;stroke-width:1.0;"/><text fill="#000000" font-family="sans-serif" font-size="13" lengthAdjust="spacing" textLength="45" x="481" y="269.5283">exploits</text></g><!--reverse link Account Takeover to Attacker--><g id="link_Account Takeover_Attacker"><path d="M421.5324,375.1229 C457.3924,364.9529 496.03,349.17 527,320.5 C546.92,302.06 560.73,274.78 569.53,252.25 " fill="none" id="Account Takeover-backto-Attacker" style="stroke:#181818;stroke-width:1.0;"/><polygon fill="#181818" points="415.76,376.76,425.5099,378.1527,420.5703,375.3958,423.3272,370.4562,415.76,376.76" style="stroke:#181818;stroke-width:1.0;"/><text fill="#000000" font-family="sans-serif" font-size="13" lengthAdjust="spacing" textLength="45" x="481" y="316.5283">exploits</text></g><!--reverse link SQL Injection to Attacker--><g id="link_SQL Injection_Attacker"><path d="M418.8674,185.1324 C465.2574,192.9124 522.4,202.5 556.89,208.29 " fill="none" id="SQL Injection-backto-Attacker" style="stroke:#181818;stroke-width:1.0;"/><polygon fill="#181818" points="412.95,184.14,421.1644,189.5735,417.8811,184.967,422.4876,181.6837,412.95,184.14" style="stroke:#181818;stroke-width:1.0;"/><text fill="#000000" font-family="sans-serif" font-size="13" lengthAdjust="spacing" textLength="45" x="481" y="191.5283">exploits</text></g><!--reverse link Sign Up to Automated Registration--><g id="link_Sign Up_Automated Registration"><path d="M190.4385,85.9065 C222.2885,74.4965 265.8,58.92 302.85,45.64 " fill="none" id="Sign Up-backto-Automated Registration" style="stroke:#181818;stroke-width:1.0;"/><polygon fill="#181818" points="184.79,87.93,194.6117,88.6604,189.4971,86.2437,191.9137,81.1291,184.79,87.93" style="stroke:#181818;stroke-width:1.0;"/></g><!--reverse link Login to Brute Force Attack--><g id="link_Login_Brute Force Attack"><path d="M173.9453,199.4602 C194.2153,182.8002 225.15,158.97 259,140.5 C274,132.31 291.2,125.02 306.78,119.11 " fill="none" id="Login-backto-Brute Force Attack" style="stroke:#181818;stroke-width:1.0;"/><polygon fill="#181818" points="169.31,203.27,178.8027,200.6456,173.1727,200.0952,173.7231,194.4652,169.31,203.27" style="stroke:#181818;stroke-width:1.0;"/></g><!--reverse link Login to Credential Theft--><g id="link_Login_Credential Theft"><path d="M192.5465,222.8797 C219.9865,226.5697 253.43,231.06 287.06,235.58 " fill="none" id="Login-backto-Credential Theft" style="stroke:#181818;stroke-width:1.0;"/><polygon fill="#181818" points="186.6,222.08,194.9866,227.2438,191.5554,222.7464,196.0528,219.3152,186.6,222.08" style="stroke:#181818;stroke-width:1.0;"/></g><!--reverse link Login to Session Hijacking--><g id="link_Login_Session Hijacking"><path d="M177.3902,233.8852 C198.3702,247.4352 227.65,265.39 259,280.5 C274.82,288.12 292.69,295.28 308.61,301.18 " fill="none" id="Login-backto-Session Hijacking" style="stroke:#181818;stroke-width:1.0;"/><polygon fill="#181818" points="172.35,230.63,177.7401,238.873,176.5502,233.3427,182.0804,232.1527,172.35,230.63" style="stroke:#181818;stroke-width:1.0;"/></g><!--reverse link Login to Account Takeover--><g id="link_Login_Account Takeover"><path d="M163.9817,238.2667 C179.8217,265.9267 213.44,318.72 259,352.5 C271.6,361.84 286.86,369.16 301.4,374.73 " fill="none" id="Login-backto-Account Takeover" style="stroke:#181818;stroke-width:1.0;"/><polygon fill="#181818" points="161,233.06,162.0014,242.8578,163.4847,237.3989,168.9437,238.8822,161,233.06" style="stroke:#181818;stroke-width:1.0;"/></g><!--reverse link Login to SQL Injection--><g id="link_Login_SQL Injection"><path d="M190.6572,209.3347 C222.0672,202.6147 264.43,193.55 301.29,185.67 " fill="none" id="Login-backto-SQL Injection" style="stroke:#181818;stroke-width:1.0;"/><polygon fill="#181818" points="184.79,210.59,194.4277,212.6186,189.6794,209.5439,192.754,204.7956,184.79,210.59" style="stroke:#181818;stroke-width:1.0;"/></g><!--link Guest to Sign Up--><g id="link_Guest_Sign Up"><path d="M44.1,172.14 C66.63,156.76 100.0849,133.9233 124.0749,117.5433 " fill="none" id="Guest-to-Sign Up" style="stroke:#181818;stroke-width:1.0;"/><polygon fill="#181818" points="129.03,114.16,119.3418,115.9315,124.9007,116.9794,123.8528,122.5384,129.03,114.16" style="stroke:#181818;stroke-width:1.0;"/></g><!--link Guest to Login--><g id="link_Guest_Login"><path d="M44.1,189.3 C63.93,194.55 90.2702,201.5328 114.0402,207.8328 " fill="none" id="Guest-to-Login" style="stroke:#181818;stroke-width:1.0;"/><polygon fill="#181818" points="119.84,209.37,112.1651,203.1977,115.0069,208.089,110.1156,210.9308,119.84,209.37" style="stroke:#181818;stroke-width:1.0;"/></g><!--SRC=[TPBFJiCm3CRlVWfBNEYXBu0GKa7YZxGBstY0A3MPjv9CYODuVChQZgPfZl7ti-FFTaUVWkBGipa8jkn92piBeBGuZo-HWaoFHaJf4tc064YhG7YxOsFnurpzHpREiArcoAEFGlZilAQnGdMpfNPMuts3R_OuVBpGcYZkImcrk2N3GRowG9XIJvvQiiAgm_sXDxJKTnH2duQlVEo_PskMGAErYrPmhqxalicFEa2fWVkwlexZZdxEdMC9iEQrG6Oj5xYyzGAOMIWLJAQz3i5rh_W7b8O0ux87QCLx2cIMKpbtckgPmKaUiXDR09V3nRf-cDteB3PTAVm2]--></g></svg>