<?xml version="1.0" encoding="us-ascii" standalone="no"?><svg xmlns="http://www.w3.org/2000/svg" xmlns:xlink="http://www.w3.org/1999/xlink" contentStyleType="text/css" height="345px" preserveAspectRatio="none" style="width:616px;height:345px;background:#FFFFFF;" version="1.1" viewBox="0 0 616 345" width="616px" zoomAndPan="magnify"><defs/><g><!--entity Guest--><g id="elem_Guest"><ellipse cx="25" cy="111.5" fill="#F1F1F1" rx="8" ry="8" style="stroke:#181818;stroke-width:0.5;"/><path d="M25,119.5 L25,146.5 M12,127.5 L38,127.5 M25,146.5 L12,161.5 M25,146.5 L38,161.5 " fill="none" style="stroke:#181818;stroke-width:0.5;"/><text fill="#000000" font-family="sans-serif" font-size="14" lengthAdjust="spacing" textLength="38" x="6" y="178.1074">Guest</text></g><!--entity Attacker--><g id="elem_Attacker"><ellipse cx="583" cy="144.5" fill="#F1F1F1" rx="8" ry="8" style="stroke:#181818;stroke-width:0.5;"/><path d="M583,152.5 L583,179.5 M570,160.5 L596,160.5 M583,179.5 L570,194.5 M583,179.5 L596,194.5 " fill="none" style="stroke:#181818;stroke-width:0.5;"/><text fill="#000000" font-family="sans-serif" font-size="14" lengthAdjust="spacing" textLength="52" x="557" y="211.1074">Attacker</text></g><g id="elem_Sign Up"><ellipse cx="151.5726" cy="80.3011" fill="#F1F1F1" rx="46.5726" ry="16.3011" style="stroke:#181818;stroke-width:0.5;"/><text fill="#000000" font-family="sans-serif" font-size="14" lengthAdjust="spacing" textLength="49" x="124.0726" y="85.1049">Sign Up</text></g><g id="elem_Login"><ellipse cx="151.2555" cy="175.6756" fill="#F1F1F1" rx="36.2555" ry="16.1756" style="stroke:#181818;stroke-width:0.5;"/><text fill="#000000" font-family="sans-serif" font-size="14" lengthAdjust="spacing" textLength="35" x="132.9112" y="179.8069">Login</text></g><g id="elem_Brute Force Attack"><ellipse cx="354.6549" cy="103.631" fill="#FF0000" rx="83.6549" ry="19.131" style="stroke:#181818;stroke-width:0.5;"/><text fill="#000000" font-family="sans-serif" font-size="14" lengthAdjust="spacing" textLength="118" x="292.6549" y="108.4347">Brute Force Attack</text></g><g id="elem_Automated Registration"><ellipse cx="354.6884" cy="27.5377" fill="#FF0000" rx="95.6884" ry="21.5377" style="stroke:#181818;stroke-width:0.5;"/><text fill="#000000" font-family="sans-serif" font-size="14" lengthAdjust="spacing" textLength="148" x="278.2253" y="32.1811">Automated Registration</text></g><g id="elem_Credential Theft"><ellipse cx="354.6807" cy="175.4361" fill="#FF0000" rx="77.6807" ry="17.9361" style="stroke:#181818;stroke-width:0.5;"/><text fill="#000000" font-family="sans-serif" font-size="14" lengthAdjust="spacing" textLength="102" x="300.6807" y="180.2399">Credential Theft</text></g><g id="elem_Session Hijacking"><ellipse cx="354.6222" cy="247.5244" fill="#FF0000" rx="80.6222" ry="18.5244" style="stroke:#181818;stroke-width:0.5;"/><text fill="#000000" font-family="sans-serif" font-size="14" lengthAdjust="spacing" textLength="110" x="296.6222" y="252.3282">Session Hijacking</text></g><g id="elem_Account Takeover"><ellipse cx="354.5076" cy="320.4015" fill="#FF0000" rx="82.5076" ry="18.9015" style="stroke:#181818;stroke-width:0.5;"/><text fill="#000000" font-family="sans-serif" font-size="14" lengthAdjust="spacing" textLength="115" x="294.0076" y="325.2052">Account Takeover</text></g><!--reverse link Automated Registration to Attacker--><g id="link_Automated Registration_Attacker"><path d="M416.9559,46.9782 C452.6359,60.0082 492.83,78.38 527,106.5 C538,115.55 548.27,127.13 556.88,138.21 " fill="none" id="Automated Registration-backto-Attacker" style="stroke:#181818;stroke-width:1.0;"/><polygon fill="#181818" points="411.32,44.92,418.4018,51.7646,416.0166,46.6352,421.146,44.25,411.32,44.92" style="stroke:#181818;stroke-width:1.0;"/><text fill="#000000" font-family="sans-serif" font-size="13" lengthAdjust="spacing" textLength="45" x="481" y="74.5283">exploits</text></g><!--reverse link Brute Force Attack to Attacker--><g id="link_Brute Force Attack_Attacker"><path d="M420.8815,118.092 C454.2515,126.172 490.54,136.11 527,149.5 C537.01,153.18 547.69,158 556.94,162.49 " fill="none" id="Brute Force Attack-backto-Attacker" style="stroke:#181818;stroke-width:1.0;"/><polygon fill="#181818" points="415.05,116.68,422.8559,122.6857,419.9096,117.8567,424.7386,114.9103,415.05,116.68" style="stroke:#181818;stroke-width:1.0;"/><text fill="#000000" font-family="sans-serif" font-size="13" lengthAdjust="spacing" textLength="45" x="481" y="129.5283">exploits</text></g><!--reverse link Credential Theft to Attacker--><g id="link_Credential Theft_Attacker"><path d="M438.18,175.5 C481.56,175.5 526.96,175.5 556.88,175.5 " fill="none" id="Credential Theft-backto-Attacker" style="stroke:#181818;stroke-width:1.0;"/><polygon fill="#181818" points="432.18,175.5,441.18,179.5,437.18,175.5,441.18,171.5,432.18,175.5" style="stroke:#181818;stroke-width:1.0;"/><text fill="#000000" font-family="sans-serif" font-size="13" lengthAdjust="spacing" textLength="45" x="481" y="171.5283">exploits</text></g><!--reverse link Session Hijacking to Attacker--><g id="link_Session Hijacking_Attacker"><path d="M420.5833,233.6778 C454.0433,225.8778 490.51,216.09 527,202.5 C536.97,198.79 547.54,193.86 556.73,189.22 " fill="none" id="Session Hijacking-backto-Attacker" style="stroke:#181818;stroke-width:1.0;"/><polygon fill="#181818" points="414.74,235.04,424.4131,236.8923,419.6094,233.9049,422.5969,229.1012,414.74,235.04" style="stroke:#181818;stroke-width:1.0;"/><text fill="#000000" font-family="sans-serif" font-size="13" lengthAdjust="spacing" textLength="45" x="481" y="198.5283">exploits</text></g><!--reverse link Account Takeover to Attacker--><g id="link_Account Takeover_Attacker"><path d="M412.7453,303.7724 C449.0053,291.5424 491.52,273.39 527,244.5 C538.05,235.5 548.33,223.94 556.94,212.86 " fill="none" id="Account Takeover-backto-Attacker" style="stroke:#181818;stroke-width:1.0;"/><polygon fill="#181818" points="407.06,305.69,416.8664,306.6038,411.7978,304.092,414.3096,299.0234,407.06,305.69" style="stroke:#181818;stroke-width:1.0;"/><text fill="#000000" font-family="sans-serif" font-size="13" lengthAdjust="spacing" textLength="45" x="481" y="240.5283">exploits</text></g><!--reverse link Sign Up to Automated Registration--><g id="link_Sign Up_Automated Registration"><path d="M195.1717,69.2503 C223.7317,61.7203 258.13,52.65 291.6,43.82 " fill="none" id="Sign Up-backto-Automated Registration" style="stroke:#181818;stroke-width:1.0;"/><polygon fill="#181818" points="189.37,70.78,199.0924,72.3533,194.2048,69.5053,197.0528,64.6177,189.37,70.78" style="stroke:#181818;stroke-width:1.0;"/></g><!--reverse link Login to Brute Force Attack--><g id="link_Login_Brute Force Attack"><path d="M186.0985,163.4666 C219.3185,151.5666 269.55,133.57 308.8,119.51 " fill="none" id="Login-backto-Brute Force Attack" style="stroke:#181818;stroke-width:1.0;"/><polygon fill="#181818" points="180.45,165.49,190.2717,166.2206,185.1571,163.8038,187.5739,158.6892,180.45,165.49" style="stroke:#181818;stroke-width:1.0;"/></g><!--reverse link Login to Credential Theft--><g id="link_Login_Credential Theft"><path d="M194.43,175.5 C218.94,175.5 246.32,175.5 276.66,175.5 " fill="none" id="Login-backto-Credential Theft" style="stroke:#181818;stroke-width:1.0;"/><polygon fill="#181818" points="188.43,175.5,197.43,179.5,193.43,175.5,197.43,171.5,188.43,175.5" style="stroke:#181818;stroke-width:1.0;"/></g><!--reverse link Login to Session Hijacking--><g id="link_Login_Session Hijacking"><path d="M186.0982,187.5343 C219.7482,199.5943 271,217.95 310.32,232.03 " fill="none" id="Login-backto-Session Hijacking" style="stroke:#181818;stroke-width:1.0;"/><polygon fill="#181818" points="180.45,185.51,187.5728,192.3119,185.1568,187.1969,190.2718,184.781,180.45,185.51" style="stroke:#181818;stroke-width:1.0;"/></g><!--reverse link Login to Account Takeover--><g id="link_Login_Account Takeover"><path d="M167.7284,195.4568 C185.7484,218.3768 218.99,257.12 259,283.5 C272.53,292.42 288.54,299.71 303.5,305.38 " fill="none" id="Login-backto-Account Takeover" style="stroke:#181818;stroke-width:1.0;"/><polygon fill="#181818" points="164.02,190.74,166.4381,200.2874,167.1103,194.6706,172.7271,195.3429,164.02,190.74" style="stroke:#181818;stroke-width:1.0;"/></g><!--link Guest to Sign Up--><g id="link_Guest_Sign Up"><path d="M44.1,133.48 C65.01,123.07 94.2294,108.5252 118.2794,96.5452 " fill="none" id="Guest-to-Sign Up" style="stroke:#181818;stroke-width:1.0;"/><polygon fill="#181818" points="123.65,93.87,113.8106,94.3025,119.1745,96.0994,117.3776,101.4632,123.65,93.87" style="stroke:#181818;stroke-width:1.0;"/></g><!--link Guest to Login--><g id="link_Guest_Login"><path d="M44.1,147.3 C63.93,152.55 90.2702,159.5328 114.0402,165.8328 " fill="none" id="Guest-to-Login" style="stroke:#181818;stroke-width:1.0;"/><polygon fill="#181818" points="119.84,167.37,112.1651,161.1977,115.0069,166.089,110.1156,168.9308,119.84,167.37" style="stroke:#181818;stroke-width:1.0;"/></g><!--SRC=[TP91Ri8m44NtSugHkY6BNA2gAeLARHTT0Js0vKpDbDH6up7gyGaG8C7nqlEVxVyrlwCVHGqexBQABGjPvU01ZDKW-94ewlNGg1gx8m58aQo9X8irEu_V- -e- -GgEVJL2bfAKy3s8fU65wcb5xHreaeO_ezJYYXn75NDoKE6KUXDgoIkR3ZVRtlIZlgOO-sluoR_z5-pT8z1O6v9Nt9WTXGF9e0EK3BpKzItoC_tlky0QOIvFWSmi5xZSUW7C8inpS5iBde1IFXXsTO5cOas1BCrKpaDCzSmxmBbSMDUlenwDPjScmH40]--></g></svg>