<?xml version="1.0" encoding="us-ascii" standalone="no"?><svg xmlns="http://www.w3.org/2000/svg" xmlns:xlink="http://www.w3.org/1999/xlink" contentStyleType="text/css" height="516px" preserveAspectRatio="none" style="width:1038px;height:516px;background:#FFFFFF;" version="1.1" viewBox="0 0 1038 516" width="1038px" zoomAndPan="magnify"><defs/><g><rect fill="#FFFFFF" height="379.5156" style="stroke:#181818;stroke-width:1.0;" width="10" x="36" y="65.2188"/><rect fill="#FFFFFF" height="357.1641" style="stroke:#181818;stroke-width:1.0;" width="10" x="266" y="87.5703"/><rect fill="#FFFFFF" height="312.8125" style="stroke:#181818;stroke-width:1.0;" width="10" x="477" y="117.9219"/><rect fill="#FFFFFF" height="268.4609" style="stroke:#181818;stroke-width:1.0;" width="10" x="688" y="148.2734"/><rect fill="#FFFFFF" height="91.0547" style="stroke:#181818;stroke-width:1.0;" width="10" x="831" y="178.625"/><rect fill="#FFFFFF" height="58.3516" style="stroke:#181818;stroke-width:1.0;" width="10" x="831" y="344.3828"/><rect fill="#FFFFFF" height="14" style="stroke:#181818;stroke-width:1.0;" width="10" x="919.5" y="300.0313"/><rect fill="#FFFFFF" height="30.3516" style="stroke:#181818;stroke-width:1.0;" width="10" x="990" y="208.9766"/><rect fill="#FFFFFF" height="14" style="stroke:#181818;stroke-width:1.0;" width="10" x="990" y="374.7344"/><line style="stroke:#181818;stroke-width:0.5;stroke-dasharray:5.0,5.0;" x1="41" x2="41" y1="55.2188" y2="462.7344"/><line style="stroke:#181818;stroke-width:0.5;stroke-dasharray:5.0,5.0;" x1="271" x2="271" y1="55.2188" y2="462.7344"/><line style="stroke:#181818;stroke-width:0.5;stroke-dasharray:5.0,5.0;" x1="481.5" x2="481.5" y1="55.2188" y2="462.7344"/><line style="stroke:#181818;stroke-width:0.5;stroke-dasharray:5.0,5.0;" x1="693" x2="693" y1="55.2188" y2="462.7344"/><line style="stroke:#181818;stroke-width:0.5;stroke-dasharray:5.0,5.0;" x1="835.5" x2="835.5" y1="55.2188" y2="462.7344"/><line style="stroke:#181818;stroke-width:0.5;stroke-dasharray:5.0,5.0;" x1="924.5" x2="924.5" y1="55.2188" y2="462.7344"/><line style="stroke:#181818;stroke-width:0.5;stroke-dasharray:5.0,5.0;" x1="994.5" x2="994.5" y1="55.2188" y2="462.7344"/><rect fill="#E2E2F0" height="31.6094" rx="2.5" ry="2.5" style="stroke:#181818;stroke-width:0.5;" width="72" x="5" y="22.6094"/><text fill="#000000" font-family="sans-serif" font-size="14" lengthAdjust="spacing" textLength="58" x="12" y="44.1426">Frontend</text><rect fill="#E2E2F0" height="31.6094" rx="2.5" ry="2.5" style="stroke:#181818;stroke-width:0.5;" width="72" x="5" y="461.7344"/><text fill="#000000" font-family="sans-serif" font-size="14" lengthAdjust="spacing" textLength="58" x="12" y="483.2676">Frontend</text><rect fill="#E2E2F0" height="49.2188" rx="2.5" ry="2.5" style="stroke:#181818;stroke-width:0.5;" width="86" x="228" y="5"/><text fill="#000000" font-family="sans-serif" font-size="14" lengthAdjust="spacing" textLength="42" x="250" y="26.5332">router:</text><text fill="#000000" font-family="sans-serif" font-size="14" lengthAdjust="spacing" textLength="72" x="235" y="44.1426">UserRouter</text><rect fill="#E2E2F0" height="49.2188" rx="2.5" ry="2.5" style="stroke:#181818;stroke-width:0.5;" width="86" x="228" y="461.7344"/><text fill="#000000" font-family="sans-serif" font-size="14" lengthAdjust="spacing" textLength="42" x="250" y="483.2676">router:</text><text fill="#000000" font-family="sans-serif" font-size="14" lengthAdjust="spacing" textLength="72" x="235" y="500.877">UserRouter</text><rect fill="#E2E2F0" height="49.2188" rx="2.5" ry="2.5" style="stroke:#181818;stroke-width:0.5;" width="105" x="429.5" y="5"/><text fill="#000000" font-family="sans-serif" font-size="14" lengthAdjust="spacing" textLength="63" x="450.5" y="26.5332">controller:</text><text fill="#000000" font-family="sans-serif" font-size="14" lengthAdjust="spacing" textLength="91" x="436.5" y="44.1426">UserController</text><rect fill="#E2E2F0" height="49.2188" rx="2.5" ry="2.5" style="stroke:#181818;stroke-width:0.5;" width="105" x="429.5" y="461.7344"/><text fill="#000000" font-family="sans-serif" font-size="14" lengthAdjust="spacing" textLength="63" x="450.5" y="483.2676">controller:</text><text fill="#000000" font-family="sans-serif" font-size="14" lengthAdjust="spacing" textLength="91" x="436.5" y="500.877">UserController</text><rect fill="#E2E2F0" height="49.2188" rx="2.5" ry="2.5" style="stroke:#181818;stroke-width:0.5;" width="90" x="648" y="5"/><text fill="#000000" font-family="sans-serif" font-size="14" lengthAdjust="spacing" textLength="49" x="668.5" y="26.5332">service:</text><text fill="#000000" font-family="sans-serif" font-size="14" lengthAdjust="spacing" textLength="76" x="655" y="44.1426">UserService</text><rect fill="#E2E2F0" height="49.2188" rx="2.5" ry="2.5" style="stroke:#181818;stroke-width:0.5;" width="90" x="648" y="461.7344"/><text fill="#000000" font-family="sans-serif" font-size="14" lengthAdjust="spacing" textLength="49" x="668.5" y="483.2676">service:</text><text fill="#000000" font-family="sans-serif" font-size="14" lengthAdjust="spacing" textLength="76" x="655" y="500.877">UserService</text><rect fill="#E2E2F0" height="49.2188" rx="2.5" ry="2.5" style="stroke:#181818;stroke-width:0.5;" width="111" x="780.5" y="5"/><text fill="#000000" font-family="sans-serif" font-size="14" lengthAdjust="spacing" textLength="67" x="802.5" y="26.5332">repository:</text><text fill="#000000" font-family="sans-serif" font-size="14" lengthAdjust="spacing" textLength="97" x="787.5" y="44.1426">UserRepository</text><rect fill="#E2E2F0" height="49.2188" rx="2.5" ry="2.5" style="stroke:#181818;stroke-width:0.5;" width="111" x="780.5" y="461.7344"/><text fill="#000000" font-family="sans-serif" font-size="14" lengthAdjust="spacing" textLength="67" x="802.5" y="483.2676">repository:</text><text fill="#000000" font-family="sans-serif" font-size="14" lengthAdjust="spacing" textLength="97" x="787.5" y="500.877">UserRepository</text><rect fill="#E2E2F0" height="49.2188" rx="2.5" ry="2.5" style="stroke:#181818;stroke-width:0.5;" width="46" x="901.5" y="5"/><text fill="#000000" font-family="sans-serif" font-size="14" lengthAdjust="spacing" textLength="32" x="908.5" y="26.5332">user:</text><text fill="#000000" font-family="sans-serif" font-size="14" lengthAdjust="spacing" textLength="29" x="910" y="44.1426">User</text><rect fill="#E2E2F0" height="49.2188" rx="2.5" ry="2.5" style="stroke:#181818;stroke-width:0.5;" width="46" x="901.5" y="461.7344"/><text fill="#000000" font-family="sans-serif" font-size="14" lengthAdjust="spacing" textLength="32" x="908.5" y="483.2676">user:</text><text fill="#000000" font-family="sans-serif" font-size="14" lengthAdjust="spacing" textLength="29" x="910" y="500.877">User</text><rect fill="#E2E2F0" height="31.6094" rx="2.5" ry="2.5" style="stroke:#181818;stroke-width:0.5;" width="75" x="957.5" y="22.6094"/><text fill="#000000" font-family="sans-serif" font-size="14" lengthAdjust="spacing" textLength="61" x="964.5" y="44.1426">Database</text><rect fill="#E2E2F0" height="31.6094" rx="2.5" ry="2.5" style="stroke:#181818;stroke-width:0.5;" width="75" x="957.5" y="461.7344"/><text fill="#000000" font-family="sans-serif" font-size="14" lengthAdjust="spacing" textLength="61" x="964.5" y="483.2676">Database</text><rect fill="#FFFFFF" height="379.5156" style="stroke:#181818;stroke-width:1.0;" width="10" x="36" y="65.2188"/><rect fill="#FFFFFF" height="357.1641" style="stroke:#181818;stroke-width:1.0;" width="10" x="266" y="87.5703"/><rect fill="#FFFFFF" height="312.8125" style="stroke:#181818;stroke-width:1.0;" width="10" x="477" y="117.9219"/><rect fill="#FFFFFF" height="268.4609" style="stroke:#181818;stroke-width:1.0;" width="10" x="688" y="148.2734"/><rect fill="#FFFFFF" height="91.0547" style="stroke:#181818;stroke-width:1.0;" width="10" x="831" y="178.625"/><rect fill="#FFFFFF" height="58.3516" style="stroke:#181818;stroke-width:1.0;" width="10" x="831" y="344.3828"/><rect fill="#FFFFFF" height="14" style="stroke:#181818;stroke-width:1.0;" width="10" x="919.5" y="300.0313"/><rect fill="#FFFFFF" height="30.3516" style="stroke:#181818;stroke-width:1.0;" width="10" x="990" y="208.9766"/><rect fill="#FFFFFF" height="14" style="stroke:#181818;stroke-width:1.0;" width="10" x="990" y="374.7344"/><polygon fill="#181818" points="254,83.5703,264,87.5703,254,91.5703,258,87.5703" style="stroke:#181818;stroke-width:1.0;"/><line style="stroke:#181818;stroke-width:1.0;" x1="46" x2="260" y1="87.5703" y2="87.5703"/><text fill="#000000" font-family="sans-serif" font-size="13" lengthAdjust="spacing" textLength="201" x="53" y="82.7139">Requests to change a user's roles.</text><polygon fill="#181818" points="465,113.9219,475,117.9219,465,121.9219,469,117.9219" style="stroke:#181818;stroke-width:1.0;"/><line style="stroke:#181818;stroke-width:1.0;" x1="276" x2="471" y1="117.9219" y2="117.9219"/><text fill="#000000" font-family="sans-serif" font-size="13" lengthAdjust="spacing" textLength="182" x="283" y="113.0654">changeRoles(userId, newRoles)</text><polygon fill="#181818" points="676,144.2734,686,148.2734,676,152.2734,680,148.2734" style="stroke:#181818;stroke-width:1.0;"/><line style="stroke:#181818;stroke-width:1.0;" x1="487" x2="682" y1="148.2734" y2="148.2734"/><text fill="#000000" font-family="sans-serif" font-size="13" lengthAdjust="spacing" textLength="182" x="494" y="143.417">changeRoles(userId, newRoles)</text><polygon fill="#181818" points="819,174.625,829,178.625,819,182.625,823,178.625" style="stroke:#181818;stroke-width:1.0;"/><line style="stroke:#181818;stroke-width:1.0;" x1="698" x2="825" y1="178.625" y2="178.625"/><text fill="#000000" font-family="sans-serif" font-size="13" lengthAdjust="spacing" textLength="114" x="705" y="173.7686">getUserById(userId)</text><polygon fill="#181818" points="978,204.9766,988,208.9766,978,212.9766,982,208.9766" style="stroke:#181818;stroke-width:1.0;"/><line style="stroke:#181818;stroke-width:1.0;" x1="841" x2="984" y1="208.9766" y2="208.9766"/><text fill="#000000" font-family="sans-serif" font-size="13" lengthAdjust="spacing" textLength="32" x="848" y="204.1201">query</text><polygon fill="#181818" points="852,235.3281,842,239.3281,852,243.3281,848,239.3281" style="stroke:#181818;stroke-width:1.0;"/><line style="stroke:#181818;stroke-width:1.0;stroke-dasharray:2.0,2.0;" x1="846" x2="994" y1="239.3281" y2="239.3281"/><text fill="#000000" font-family="sans-serif" font-size="13" lengthAdjust="spacing" textLength="32" x="858" y="234.4717">result</text><polygon fill="#181818" points="709,265.6797,699,269.6797,709,273.6797,705,269.6797" style="stroke:#181818;stroke-width:1.0;"/><line style="stroke:#181818;stroke-width:1.0;stroke-dasharray:2.0,2.0;" x1="703" x2="835" y1="269.6797" y2="269.6797"/><text fill="#000000" font-family="sans-serif" font-size="13" lengthAdjust="spacing" textLength="25" x="715" y="264.8232">user</text><polygon fill="#181818" points="907.5,296.0313,917.5,300.0313,907.5,304.0313,911.5,300.0313" style="stroke:#181818;stroke-width:1.0;"/><line style="stroke:#181818;stroke-width:1.0;" x1="698" x2="913.5" y1="300.0313" y2="300.0313"/><text fill="#000000" font-family="sans-serif" font-size="13" lengthAdjust="spacing" textLength="139" x="705" y="295.1748">changeRoles(newRoles)</text><polygon fill="#181818" points="709,310.0313,699,314.0313,709,318.0313,705,314.0313" style="stroke:#181818;stroke-width:1.0;"/><line style="stroke:#181818;stroke-width:1.0;stroke-dasharray:2.0,2.0;" x1="703" x2="923.5" y1="314.0313" y2="314.0313"/><polygon fill="#181818" points="819,340.3828,829,344.3828,819,348.3828,823,344.3828" style="stroke:#181818;stroke-width:1.0;"/><line style="stroke:#181818;stroke-width:1.0;" x1="698" x2="825" y1="344.3828" y2="344.3828"/><text fill="#000000" font-family="sans-serif" font-size="13" lengthAdjust="spacing" textLength="59" x="705" y="339.5264">save(user)</text><polygon fill="#181818" points="978,370.7344,988,374.7344,978,378.7344,982,374.7344" style="stroke:#181818;stroke-width:1.0;"/><line style="stroke:#181818;stroke-width:1.0;" x1="841" x2="984" y1="374.7344" y2="374.7344"/><text fill="#000000" font-family="sans-serif" font-size="13" lengthAdjust="spacing" textLength="26" x="848" y="369.8779">save</text><polygon fill="#181818" points="852,384.7344,842,388.7344,852,392.7344,848,388.7344" style="stroke:#181818;stroke-width:1.0;"/><line style="stroke:#181818;stroke-width:1.0;stroke-dasharray:2.0,2.0;" x1="846" x2="994" y1="388.7344" y2="388.7344"/><polygon fill="#181818" points="709,398.7344,699,402.7344,709,406.7344,705,402.7344" style="stroke:#181818;stroke-width:1.0;"/><line style="stroke:#181818;stroke-width:1.0;stroke-dasharray:2.0,2.0;" x1="703" x2="835" y1="402.7344" y2="402.7344"/><polygon fill="#181818" points="498,412.7344,488,416.7344,498,420.7344,494,416.7344" style="stroke:#181818;stroke-width:1.0;"/><line style="stroke:#181818;stroke-width:1.0;stroke-dasharray:2.0,2.0;" x1="492" x2="692" y1="416.7344" y2="416.7344"/><polygon fill="#181818" points="287,426.7344,277,430.7344,287,434.7344,283,430.7344" style="stroke:#181818;stroke-width:1.0;"/><line style="stroke:#181818;stroke-width:1.0;stroke-dasharray:2.0,2.0;" x1="281" x2="481" y1="430.7344" y2="430.7344"/><polygon fill="#181818" points="52,440.7344,42,444.7344,52,448.7344,48,444.7344" style="stroke:#181818;stroke-width:1.0;"/><line style="stroke:#181818;stroke-width:1.0;stroke-dasharray:2.0,2.0;" x1="46" x2="270" y1="444.7344" y2="444.7344"/><!--SRC=[bPFFJiCm3CRlUGfh5q1YF40F700XxJh4ZKjehL5fIhl4BThR4wVvuqn3q4lhfFu-sp-vexRKj_se3S6h7GoXwTGeBZTsc0Xjys7U7TfzE6n0ErZ2EhVr1dOu7dF-Sxu8cdAiTJvpxbkCehVb51GnlcW9ny7rDDXpQYjVBAtbOwsRN6uiv75GPRneqf_QeLAwfNxMX0MAIX5i7-FmZQzqcj2H0ngW_TBcWA21ozmuy8EYUoXE4PXQtknIS3HHlMVDBHlikdim-1qkxeg98AXAp6QHrB-T4baLWp1M0Gi79ERpTDvrqKQ81M5LOhP821lmPFpdB2biKmJRYv8MtNGarU4LaQmYf-NMf49s9YRZKMeqLv24VU27B27DGy9lm9oUCP1QoObrAp2jmVCdc6e9PNRU3hbaUV5bfjp8jDe-CVytieNu1uYhdFO3]--></g></svg>