<?xml version="1.0" encoding="us-ascii" standalone="no"?><svg xmlns="http://www.w3.org/2000/svg" xmlns:xlink="http://www.w3.org/1999/xlink" contentStyleType="text/css" height="481px" preserveAspectRatio="none" style="width:1035px;height:481px;background:#FFFFFF;" version="1.1" viewBox="0 0 1035 481" width="1035px" zoomAndPan="magnify"><defs/><g><rect fill="#FFFFFF" height="379.5156" style="stroke:#181818;stroke-width:1.0;" width="10" x="36" y="47.6094"/><rect fill="#FFFFFF" height="357.1641" style="stroke:#181818;stroke-width:1.0;" width="10" x="266" y="69.9609"/><rect fill="#FFFFFF" height="312.8125" style="stroke:#181818;stroke-width:1.0;" width="10" x="477" y="100.3125"/><rect fill="#FFFFFF" height="268.4609" style="stroke:#181818;stroke-width:1.0;" width="10" x="688" y="130.6641"/><rect fill="#FFFFFF" height="91.0547" style="stroke:#181818;stroke-width:1.0;" width="10" x="831" y="161.0156"/><rect fill="#FFFFFF" height="58.3516" style="stroke:#181818;stroke-width:1.0;" width="10" x="831" y="326.7734"/><rect fill="#FFFFFF" height="30.3516" style="stroke:#181818;stroke-width:1.0;" width="10" x="934" y="191.3672"/><rect fill="#FFFFFF" height="14" style="stroke:#181818;stroke-width:1.0;" width="10" x="934" y="357.125"/><rect fill="#FFFFFF" height="14" style="stroke:#181818;stroke-width:1.0;" width="10" x="1003" y="282.4219"/><line style="stroke:#181818;stroke-width:0.5;stroke-dasharray:5.0,5.0;" x1="41" x2="41" y1="37.6094" y2="445.125"/><line style="stroke:#181818;stroke-width:0.5;stroke-dasharray:5.0,5.0;" x1="271" x2="271" y1="37.6094" y2="445.125"/><line style="stroke:#181818;stroke-width:0.5;stroke-dasharray:5.0,5.0;" x1="481.5" x2="481.5" y1="37.6094" y2="445.125"/><line style="stroke:#181818;stroke-width:0.5;stroke-dasharray:5.0,5.0;" x1="693" x2="693" y1="37.6094" y2="445.125"/><line style="stroke:#181818;stroke-width:0.5;stroke-dasharray:5.0,5.0;" x1="835.5" x2="835.5" y1="37.6094" y2="445.125"/><line style="stroke:#181818;stroke-width:0.5;stroke-dasharray:5.0,5.0;" x1="938.5" x2="938.5" y1="37.6094" y2="445.125"/><line style="stroke:#181818;stroke-width:0.5;stroke-dasharray:5.0,5.0;" x1="1007.5" x2="1007.5" y1="37.6094" y2="445.125"/><rect fill="#E2E2F0" height="31.6094" rx="2.5" ry="2.5" style="stroke:#181818;stroke-width:0.5;" width="72" x="5" y="5"/><text fill="#000000" font-family="sans-serif" font-size="14" lengthAdjust="spacing" textLength="58" x="12" y="26.5332">Frontend</text><rect fill="#E2E2F0" height="31.6094" rx="2.5" ry="2.5" style="stroke:#181818;stroke-width:0.5;" width="72" x="5" y="444.125"/><text fill="#000000" font-family="sans-serif" font-size="14" lengthAdjust="spacing" textLength="58" x="12" y="465.6582">Frontend</text><rect fill="#E2E2F0" height="31.6094" rx="2.5" ry="2.5" style="stroke:#181818;stroke-width:0.5;" width="86" x="228" y="5"/><text fill="#000000" font-family="sans-serif" font-size="14" lengthAdjust="spacing" textLength="72" x="235" y="26.5332">UserRouter</text><rect fill="#E2E2F0" height="31.6094" rx="2.5" ry="2.5" style="stroke:#181818;stroke-width:0.5;" width="86" x="228" y="444.125"/><text fill="#000000" font-family="sans-serif" font-size="14" lengthAdjust="spacing" textLength="72" x="235" y="465.6582">UserRouter</text><rect fill="#E2E2F0" height="31.6094" rx="2.5" ry="2.5" style="stroke:#181818;stroke-width:0.5;" width="105" x="429.5" y="5"/><text fill="#000000" font-family="sans-serif" font-size="14" lengthAdjust="spacing" textLength="91" x="436.5" y="26.5332">UserController</text><rect fill="#E2E2F0" height="31.6094" rx="2.5" ry="2.5" style="stroke:#181818;stroke-width:0.5;" width="105" x="429.5" y="444.125"/><text fill="#000000" font-family="sans-serif" font-size="14" lengthAdjust="spacing" textLength="91" x="436.5" y="465.6582">UserController</text><rect fill="#E2E2F0" height="31.6094" rx="2.5" ry="2.5" style="stroke:#181818;stroke-width:0.5;" width="90" x="648" y="5"/><text fill="#000000" font-family="sans-serif" font-size="14" lengthAdjust="spacing" textLength="76" x="655" y="26.5332">UserService</text><rect fill="#E2E2F0" height="31.6094" rx="2.5" ry="2.5" style="stroke:#181818;stroke-width:0.5;" width="90" x="648" y="444.125"/><text fill="#000000" font-family="sans-serif" font-size="14" lengthAdjust="spacing" textLength="76" x="655" y="465.6582">UserService</text><rect fill="#E2E2F0" height="31.6094" rx="2.5" ry="2.5" style="stroke:#181818;stroke-width:0.5;" width="111" x="780.5" y="5"/><text fill="#000000" font-family="sans-serif" font-size="14" lengthAdjust="spacing" textLength="97" x="787.5" y="26.5332">UserRepository</text><rect fill="#E2E2F0" height="31.6094" rx="2.5" ry="2.5" style="stroke:#181818;stroke-width:0.5;" width="111" x="780.5" y="444.125"/><text fill="#000000" font-family="sans-serif" font-size="14" lengthAdjust="spacing" textLength="97" x="787.5" y="465.6582">UserRepository</text><rect fill="#E2E2F0" height="31.6094" rx="2.5" ry="2.5" style="stroke:#181818;stroke-width:0.5;" width="75" x="901.5" y="5"/><text fill="#000000" font-family="sans-serif" font-size="14" lengthAdjust="spacing" textLength="61" x="908.5" y="26.5332">Database</text><rect fill="#E2E2F0" height="31.6094" rx="2.5" ry="2.5" style="stroke:#181818;stroke-width:0.5;" width="75" x="901.5" y="444.125"/><text fill="#000000" font-family="sans-serif" font-size="14" lengthAdjust="spacing" textLength="61" x="908.5" y="465.6582">Database</text><rect fill="#E2E2F0" height="31.6094" rx="2.5" ry="2.5" style="stroke:#181818;stroke-width:0.5;" width="43" x="986.5" y="5"/><text fill="#000000" font-family="sans-serif" font-size="14" lengthAdjust="spacing" textLength="29" x="993.5" y="26.5332">User</text><rect fill="#E2E2F0" height="31.6094" rx="2.5" ry="2.5" style="stroke:#181818;stroke-width:0.5;" width="43" x="986.5" y="444.125"/><text fill="#000000" font-family="sans-serif" font-size="14" lengthAdjust="spacing" textLength="29" x="993.5" y="465.6582">User</text><rect fill="#FFFFFF" height="379.5156" style="stroke:#181818;stroke-width:1.0;" width="10" x="36" y="47.6094"/><rect fill="#FFFFFF" height="357.1641" style="stroke:#181818;stroke-width:1.0;" width="10" x="266" y="69.9609"/><rect fill="#FFFFFF" height="312.8125" style="stroke:#181818;stroke-width:1.0;" width="10" x="477" y="100.3125"/><rect fill="#FFFFFF" height="268.4609" style="stroke:#181818;stroke-width:1.0;" width="10" x="688" y="130.6641"/><rect fill="#FFFFFF" height="91.0547" style="stroke:#181818;stroke-width:1.0;" width="10" x="831" y="161.0156"/><rect fill="#FFFFFF" height="58.3516" style="stroke:#181818;stroke-width:1.0;" width="10" x="831" y="326.7734"/><rect fill="#FFFFFF" height="30.3516" style="stroke:#181818;stroke-width:1.0;" width="10" x="934" y="191.3672"/><rect fill="#FFFFFF" height="14" style="stroke:#181818;stroke-width:1.0;" width="10" x="934" y="357.125"/><rect fill="#FFFFFF" height="14" style="stroke:#181818;stroke-width:1.0;" width="10" x="1003" y="282.4219"/><polygon fill="#181818" points="254,65.9609,264,69.9609,254,73.9609,258,69.9609" style="stroke:#181818;stroke-width:1.0;"/><line style="stroke:#181818;stroke-width:1.0;" x1="46" x2="260" y1="69.9609" y2="69.9609"/><text fill="#000000" font-family="sans-serif" font-size="13" lengthAdjust="spacing" textLength="201" x="53" y="65.1045">Requests to change a user's roles.</text><polygon fill="#181818" points="465,96.3125,475,100.3125,465,104.3125,469,100.3125" style="stroke:#181818;stroke-width:1.0;"/><line style="stroke:#181818;stroke-width:1.0;" x1="276" x2="471" y1="100.3125" y2="100.3125"/><text fill="#000000" font-family="sans-serif" font-size="13" lengthAdjust="spacing" textLength="182" x="283" y="95.4561">changeRoles(userId, newRoles)</text><polygon fill="#181818" points="676,126.6641,686,130.6641,676,134.6641,680,130.6641" style="stroke:#181818;stroke-width:1.0;"/><line style="stroke:#181818;stroke-width:1.0;" x1="487" x2="682" y1="130.6641" y2="130.6641"/><text fill="#000000" font-family="sans-serif" font-size="13" lengthAdjust="spacing" textLength="182" x="494" y="125.8076">changeRoles(userId, newRoles)</text><polygon fill="#181818" points="819,157.0156,829,161.0156,819,165.0156,823,161.0156" style="stroke:#181818;stroke-width:1.0;"/><line style="stroke:#181818;stroke-width:1.0;" x1="698" x2="825" y1="161.0156" y2="161.0156"/><text fill="#000000" font-family="sans-serif" font-size="13" lengthAdjust="spacing" textLength="114" x="705" y="156.1592">getUserById(userId)</text><polygon fill="#181818" points="922,187.3672,932,191.3672,922,195.3672,926,191.3672" style="stroke:#181818;stroke-width:1.0;"/><line style="stroke:#181818;stroke-width:1.0;" x1="841" x2="928" y1="191.3672" y2="191.3672"/><text fill="#000000" font-family="sans-serif" font-size="13" lengthAdjust="spacing" textLength="32" x="848" y="186.5107">query</text><polygon fill="#181818" points="852,217.7188,842,221.7188,852,225.7188,848,221.7188" style="stroke:#181818;stroke-width:1.0;"/><line style="stroke:#181818;stroke-width:1.0;stroke-dasharray:2.0,2.0;" x1="846" x2="938" y1="221.7188" y2="221.7188"/><text fill="#000000" font-family="sans-serif" font-size="13" lengthAdjust="spacing" textLength="32" x="858" y="216.8623">result</text><polygon fill="#181818" points="709,248.0703,699,252.0703,709,256.0703,705,252.0703" style="stroke:#181818;stroke-width:1.0;"/><line style="stroke:#181818;stroke-width:1.0;stroke-dasharray:2.0,2.0;" x1="703" x2="835" y1="252.0703" y2="252.0703"/><text fill="#000000" font-family="sans-serif" font-size="13" lengthAdjust="spacing" textLength="25" x="715" y="247.2139">user</text><polygon fill="#181818" points="991,278.4219,1001,282.4219,991,286.4219,995,282.4219" style="stroke:#181818;stroke-width:1.0;"/><line style="stroke:#181818;stroke-width:1.0;" x1="698" x2="997" y1="282.4219" y2="282.4219"/><text fill="#000000" font-family="sans-serif" font-size="13" lengthAdjust="spacing" textLength="139" x="705" y="277.5654">changeRoles(newRoles)</text><polygon fill="#181818" points="709,292.4219,699,296.4219,709,300.4219,705,296.4219" style="stroke:#181818;stroke-width:1.0;"/><line style="stroke:#181818;stroke-width:1.0;stroke-dasharray:2.0,2.0;" x1="703" x2="1007" y1="296.4219" y2="296.4219"/><polygon fill="#181818" points="819,322.7734,829,326.7734,819,330.7734,823,326.7734" style="stroke:#181818;stroke-width:1.0;"/><line style="stroke:#181818;stroke-width:1.0;" x1="698" x2="825" y1="326.7734" y2="326.7734"/><text fill="#000000" font-family="sans-serif" font-size="13" lengthAdjust="spacing" textLength="59" x="705" y="321.917">save(user)</text><polygon fill="#181818" points="922,353.125,932,357.125,922,361.125,926,357.125" style="stroke:#181818;stroke-width:1.0;"/><line style="stroke:#181818;stroke-width:1.0;" x1="841" x2="928" y1="357.125" y2="357.125"/><text fill="#000000" font-family="sans-serif" font-size="13" lengthAdjust="spacing" textLength="26" x="848" y="352.2686">save</text><polygon fill="#181818" points="852,367.125,842,371.125,852,375.125,848,371.125" style="stroke:#181818;stroke-width:1.0;"/><line style="stroke:#181818;stroke-width:1.0;stroke-dasharray:2.0,2.0;" x1="846" x2="938" y1="371.125" y2="371.125"/><polygon fill="#181818" points="709,381.125,699,385.125,709,389.125,705,385.125" style="stroke:#181818;stroke-width:1.0;"/><line style="stroke:#181818;stroke-width:1.0;stroke-dasharray:2.0,2.0;" x1="703" x2="835" y1="385.125" y2="385.125"/><polygon fill="#181818" points="498,395.125,488,399.125,498,403.125,494,399.125" style="stroke:#181818;stroke-width:1.0;"/><line style="stroke:#181818;stroke-width:1.0;stroke-dasharray:2.0,2.0;" x1="492" x2="692" y1="399.125" y2="399.125"/><polygon fill="#181818" points="287,409.125,277,413.125,287,417.125,283,413.125" style="stroke:#181818;stroke-width:1.0;"/><line style="stroke:#181818;stroke-width:1.0;stroke-dasharray:2.0,2.0;" x1="281" x2="481" y1="413.125" y2="413.125"/><polygon fill="#181818" points="52,423.125,42,427.125,52,431.125,48,427.125" style="stroke:#181818;stroke-width:1.0;"/><line style="stroke:#181818;stroke-width:1.0;stroke-dasharray:2.0,2.0;" x1="46" x2="270" y1="427.125" y2="427.125"/><!--SRC=[bPDDJiCm48NtFiNi08boW2nO04BgjbKFO99HiHJ5mPu4zVOT9_wPa2B8fdASzzxCV9tqsf6fJQyxWdTdEyAkKRsuF7bq1piGEj0UvjDAyCf6Pzjs5fMdbV28RZGr1bKyhejXRxqXwovJmVoq4BvfqX_QhzrAwPhCg0dBE2gTOFSS9wWu-6j0Jnx8GlsfkpCt1GCdt7dWvj4_bQGujOeSEAMCM4Nt8NZkGy2-UOGElwUBXn8Yg2Z1YyCYYNyd9N8gqGnZPKuLd942YfVBleanmYo0Ae6Q8nBJ2fWClywM35kb4-n-b7JeXvPKWpTCiegSDhGc7R8pCLaOPOdc1fBfhmy_ieGCdtVZ5s1UZpYHsiWf-3PWseBdJp2B9PJgl1rooVBYIwNSoBJQBCpVZMmXVW7YAikk]--></g></svg>