<?xml version="1.0" encoding="us-ascii" standalone="no"?><svg xmlns="http://www.w3.org/2000/svg" xmlns:xlink="http://www.w3.org/1999/xlink" contentStyleType="text/css" height="366px" preserveAspectRatio="none" style="width:740px;height:366px;background:#FFFFFF;" version="1.1" viewBox="0 0 740 366" width="740px" zoomAndPan="magnify"><defs/><g><rect fill="#FFFFFF" height="151.7578" style="stroke:#181818;stroke-width:1.0;" width="10" x="226" y="114.9609"/><rect fill="#FFFFFF" height="91.0547" style="stroke:#181818;stroke-width:1.0;" width="10" x="459" y="145.3125"/><rect fill="#FFFFFF" height="30.3516" style="stroke:#181818;stroke-width:1.0;" width="10" x="692" y="175.6641"/><line style="stroke:#181818;stroke-width:0.5;stroke-dasharray:5.0,5.0;" x1="26" x2="26" y1="82.6094" y2="284.7188"/><line style="stroke:#181818;stroke-width:0.5;stroke-dasharray:5.0,5.0;" x1="231" x2="231" y1="82.6094" y2="284.7188"/><line style="stroke:#181818;stroke-width:0.5;stroke-dasharray:5.0,5.0;" x1="463.5" x2="463.5" y1="82.6094" y2="284.7188"/><line style="stroke:#181818;stroke-width:0.5;stroke-dasharray:5.0,5.0;" x1="696.5" x2="696.5" y1="82.6094" y2="284.7188"/><text fill="#000000" font-family="sans-serif" font-size="14" lengthAdjust="spacing" textLength="36" x="5" y="79.5332">Client</text><ellipse cx="26" cy="13.5" fill="#E2E2F0" rx="8" ry="8" style="stroke:#181818;stroke-width:0.5;"/><path d="M26,21.5 L26,48.5 M13,29.5 L39,29.5 M26,48.5 L13,63.5 M26,48.5 L39,63.5 " fill="none" style="stroke:#181818;stroke-width:0.5;"/><text fill="#000000" font-family="sans-serif" font-size="14" lengthAdjust="spacing" textLength="36" x="5" y="298.252">Client</text><ellipse cx="26" cy="309.8281" fill="#E2E2F0" rx="8" ry="8" style="stroke:#181818;stroke-width:0.5;"/><path d="M26,317.8281 L26,344.8281 M13,325.8281 L39,325.8281 M26,344.8281 L13,359.8281 M26,344.8281 L39,359.8281 " fill="none" style="stroke:#181818;stroke-width:0.5;"/><rect fill="#E2E2F0" height="31.6094" rx="2.5" ry="2.5" style="stroke:#181818;stroke-width:0.5;" width="72" x="195" y="50"/><text fill="#000000" font-family="sans-serif" font-size="14" lengthAdjust="spacing" textLength="58" x="202" y="71.5332">Frontend</text><rect fill="#E2E2F0" height="31.6094" rx="2.5" ry="2.5" style="stroke:#181818;stroke-width:0.5;" width="72" x="195" y="283.7188"/><text fill="#000000" font-family="sans-serif" font-size="14" lengthAdjust="spacing" textLength="58" x="202" y="305.252">Frontend</text><rect fill="#E2E2F0" height="31.6094" rx="2.5" ry="2.5" style="stroke:#181818;stroke-width:0.5;" width="69" x="429.5" y="50"/><text fill="#000000" font-family="sans-serif" font-size="14" lengthAdjust="spacing" textLength="55" x="436.5" y="71.5332">Backend</text><rect fill="#E2E2F0" height="31.6094" rx="2.5" ry="2.5" style="stroke:#181818;stroke-width:0.5;" width="69" x="429.5" y="283.7188"/><text fill="#000000" font-family="sans-serif" font-size="14" lengthAdjust="spacing" textLength="55" x="436.5" y="305.252">Backend</text><rect fill="#E2E2F0" height="31.6094" rx="2.5" ry="2.5" style="stroke:#181818;stroke-width:0.5;" width="75" x="659.5" y="50"/><text fill="#000000" font-family="sans-serif" font-size="14" lengthAdjust="spacing" textLength="61" x="666.5" y="71.5332">Database</text><rect fill="#E2E2F0" height="31.6094" rx="2.5" ry="2.5" style="stroke:#181818;stroke-width:0.5;" width="75" x="659.5" y="283.7188"/><text fill="#000000" font-family="sans-serif" font-size="14" lengthAdjust="spacing" textLength="61" x="666.5" y="305.252">Database</text><rect fill="#FFFFFF" height="151.7578" style="stroke:#181818;stroke-width:1.0;" width="10" x="226" y="114.9609"/><rect fill="#FFFFFF" height="91.0547" style="stroke:#181818;stroke-width:1.0;" width="10" x="459" y="145.3125"/><rect fill="#FFFFFF" height="30.3516" style="stroke:#181818;stroke-width:1.0;" width="10" x="692" y="175.6641"/><polygon fill="#181818" points="214,110.9609,224,114.9609,214,118.9609,218,114.9609" style="stroke:#181818;stroke-width:1.0;"/><line style="stroke:#181818;stroke-width:1.0;" x1="26" x2="220" y1="114.9609" y2="114.9609"/><text fill="#000000" font-family="sans-serif" font-size="13" lengthAdjust="spacing" textLength="181" x="33" y="110.1045">Asks to see purchased photos.</text><polygon fill="#181818" points="447,141.3125,457,145.3125,447,149.3125,451,145.3125" style="stroke:#181818;stroke-width:1.0;"/><line style="stroke:#181818;stroke-width:1.0;" x1="236" x2="453" y1="145.3125" y2="145.3125"/><text fill="#000000" font-family="sans-serif" font-size="13" lengthAdjust="spacing" textLength="204" x="243" y="140.4561">Requests user's purchased photos.</text><polygon fill="#181818" points="680,171.6641,690,175.6641,680,179.6641,684,175.6641" style="stroke:#181818;stroke-width:1.0;"/><line style="stroke:#181818;stroke-width:1.0;" x1="469" x2="686" y1="175.6641" y2="175.6641"/><text fill="#000000" font-family="sans-serif" font-size="13" lengthAdjust="spacing" textLength="204" x="476" y="170.8076">Requests user's purchased photos.</text><polygon fill="#181818" points="480,202.0156,470,206.0156,480,210.0156,476,206.0156" style="stroke:#181818;stroke-width:1.0;"/><line style="stroke:#181818;stroke-width:1.0;stroke-dasharray:2.0,2.0;" x1="474" x2="696" y1="206.0156" y2="206.0156"/><text fill="#000000" font-family="sans-serif" font-size="13" lengthAdjust="spacing" textLength="186" x="486" y="201.1592">Sends user's purchased photos.</text><polygon fill="#181818" points="247,232.3672,237,236.3672,247,240.3672,243,236.3672" style="stroke:#181818;stroke-width:1.0;"/><line style="stroke:#181818;stroke-width:1.0;stroke-dasharray:2.0,2.0;" x1="241" x2="463" y1="236.3672" y2="236.3672"/><text fill="#000000" font-family="sans-serif" font-size="13" lengthAdjust="spacing" textLength="186" x="253" y="231.5107">Sends user's purchased photos.</text><polygon fill="#181818" points="37,262.7188,27,266.7188,37,270.7188,33,266.7188" style="stroke:#181818;stroke-width:1.0;"/><line style="stroke:#181818;stroke-width:1.0;stroke-dasharray:2.0,2.0;" x1="31" x2="230" y1="266.7188" y2="266.7188"/><text fill="#000000" font-family="sans-serif" font-size="13" lengthAdjust="spacing" textLength="150" x="43" y="261.8623">Shows purchased photos.</text><!--SRC=[bP1B3i8m34JtEOLthCe1ka3Y8mu09p29fKP5IOXTk3wfsgGKeG8RQsJPp-D1BJx2_ch9YGeOnMeRq0aSetT2pioQEzJjU- -0WXTaKcgWGBKfopLikMKG3qm4eOkwIPC6GkF5yrgX5dj7eUcQogh7ZETgED6j8nQ6ZYckU8cKBQfHz9niyI_Gz5TMKBrwEgUwm37qWLGypJBwdLIUcr9Af27tn6dyumkWvFm4]--></g></svg>